<svg xmlns="http://www.w3.org/2000/svg" width="1994" height="555" fill="none"><path fill="#009245" d="M.03 495.154c6.36-.46 12.74-.69 19.4-2.07-5.7-4.78-5.58-4.76-4.14-12.62 1.17-6.37 1.97-12.8 3.04-19.19.23-1.37.21-3.61 2.15-3.41 1.9.2 1.44 2.39 1.54 3.82.4 5.51.61 11.03 1.09 16.53.5 5.87 1.27 6.68 6.77 8.32.37.11.75.17 1.1.3 1.75.65 4.32.87 4.43 3 .14 2.72-2.78 1.84-4.38 2.5-.87.36-1.74.64-2.27 1.54 4.4 2.1 8.03 1.79 15.61-1.31-1.39-2.43-5.41-1.85-5.95-4.82-.49-2.75 1.92-4.83 2.45-7.46 1.36-6.75 1.58-13.62 2.35-20.42.16-1.44-.41-3.07 1-4.28 1.85.27 1.72 1.83 1.85 3.05.71 6.43 1.39 12.87 1.97 19.32.47 5.22.47 5.3 5.36 6.48.92.22 1.87.38 2.74.72 4.39 1.74 7.69.44 9.41-3.77 1.1-2.68.28-4.3-2.56-5.18-1.91-.59-4.27.27-5.99-1.97 2.37-3.03 6.43-1.26 9.58-3.17-2.32-2.77-5.42-3.08-8.14-4.11-1.51-.57-3.97-.51-3.77-2.61.19-2.03 2.65-1.83 4.23-2.04 2.81-.36 5.67-.38 9.34-.59-2.49-2.49-5.34-2.62-7.71-3.68-.85-.38-1.93-.51-2.14-1.61-.24-1.2.76-1.74 1.6-2.06 6.46-2.48 8.43-7.56 8.81-13.99.34-5.88 1.3-11.73 2.03-17.59.11-.88-.16-1.96 1.32-2.72.77 9.03 2.21 17.78 4.68 26.33.69 2.38 1.32 4.63 3.46 6.36 2.51 2.03 2.27 2.87-.65 4.39-.99.52-2.09.81-4.32 1.66 5.6 1.61 10.6-.02 15.8 1.99-4.31 3.24-8.74 1.94-13.13 3.14 1.46 1.87 3.43 1.64 5.02 2.17 1.55.51 3.47.16 4.72 2.34-4.65 1.38-9.35 1.18-14.59 1.96 4.16 1.23 8.11.52 11.86 2.48-2.58 3.29-6.81 1.24-9.38 3.6 2.08.73 4.19.07 6.24.33 3.32.43 4.03 1.81 2.21 4.52-.74 1.1-1.77 2-2.53 3.09-2.64 3.8-2.31 5.52 1.54 8.45.3.23.65.39.99.57 1.59.83-.09 3.79 3.04 3.95 5.3.27 10.57 1.93 15.88.56 3.35-.86 5.24-5.05 4.22-8.33-.65-2.11-2.31-2.31-4.1-2.26-3.27.1-6.33 1.31-9.52 1.87-2.8.49-5.55 1.46-8.45 1.13-.78-.09-1.51-.57-1.56-1.4-.03-.47.34-1.17.74-1.43 1.42-.94 2.89-1.84 4.43-2.57 7.41-3.52 15.13-6.27 22.81-9.14 2.07-.77 4.31-1.32 7.14-3.76-4.41-.74-7.71-1.21-10.97-1.88-2.52-.52-6.47.02-6.9-2.79-.53-3.49 3.79-3.41 6.11-4.74.82-.47 1.8-.66 2.61-1.15 1.53-.93 4.15-1.11 3.84-3.56-.27-2.12-2.51-2.72-4.28-3.36-2.69-.96-5.45-1.69-8.18-2.55-.95-.3-1.82-.91-1.81-1.95 0-1.02.86-1.64 1.76-2.05 3.68-1.64 7.58-2.52 11.47-3.47 3.53-.86 3.8-1.68 1.94-4.64-.1-.16-.23-.3-.33-.46-1.53-2.36-4.31-4.2-4.11-7.29.21-3.31 3.58-4.18 5.73-5.92 1.64-1.33 2.07-3.09 2.37-5.01 1.27-8.3 1.16-16.71 1.9-25.06.18-2.02-.25-4.16.86-5.98 1.92-.1 1.84 1.23 2.04 2.28 1.13 5.85.72 11.77.91 17.67.1 3.23.28 6.47.62 9.68.4 3.81 2.4 6.26 6.35 7.04 2.04.4 4.01 1.19 6 1.87.92.31 1.84.88 1.77 1.96-.07 1.07-1.04 1.58-1.99 1.77-3.73.75-7.48 1.43-11.22 2.15-1.29.25-2.68.13-4.11 1.15 1.74 1.75 3.99 1.62 6.02 1.88 4.72.59 9.48.94 14.19 1.58 1.89.26 4.6-.03 4.04 3.36-4.32.48-8.63.94-12.94 1.45-.9.11-2.09.17-1.84 1.54.18 1 1.04 1.67 2.05 1.6 1.11-.07 2.24-.36 3.3-.72 3.21-1.11 6.47-2.11 9.4-3.9 8.12-3.35 8.46-5.76 1.67-11.18-1.86-1.48-5.23-2.45-4.59-5.22.75-3.23 4.42-2.32 6.87-2.66 5.46-.75 11.05-.22 16.46-1.67 2.23-.6 4.4-1.26 6.3-2.6 4.53-3.21 4.8-7.77.7-11.54-1.57-1.44-3.48-2.3-5.39-3.18-1.52-.7-3.38-.86-4.33-2.93 2.95-3.63 8.56-2.44 12.05-6.13-4.37-2.68-8.92-2.57-13.37-2.99-4.39-.41-8.97.96-13.77-1.12 3.26-3.81 7.6-4.17 11.36-5.61 3.68-1.41 7.47-2.55 11.2-3.8-.04-.38-.07-.76-.11-1.14-3.88 0-7.75.02-11.63 0-3.86-.02-7.76.66-11.66-.53 6.3-4.03 13.72-4.89 20.53-7.92-1.95-1.85-4.32-1.35-6.12-2.39-.84-.49-1.78-.91-1.74-2.02.04-1.08.92-1.67 1.83-1.93 2.92-.85 5.89-1.57 8.82-2.39 1.05-.29 2.49-.47 2.14-2.04-.26-1.17-1.51-.94-2.41-.97-2.09-.09-4.19-.05-6.28-.18-.72-.04-1.55-.29-1.75-1.19-.27-1.24.68-1.82 1.54-1.99 3.16-.66 6.36-1.15 9.55-1.68 1.61-.27 3.41.2 4.67-.89.13-.99-.22-1.57-.74-1.63-7.2-.85-13.59-3.97-19.99-7.06-2.15-1.04-2.39-2.21-.38-3.73 2.29-1.74 4.98-2.78 7.62-3.89 3.34-1.41 6.67-2.84 9.54-5.12 2.24-1.78 3.5-3.96 2.99-6.95-.42-2.5-1.54-4.25-4.25-4.65-1.32-.19-2.67-.36-3.91-.81-2.46-.88-2.7-2.35-.82-4.25.27-.27.55-.58.88-.72 5.8-2.26 9.06-7.97 14.56-10.66 2.65-1.3 2.62-4 2.82-6.46.83-10.25 1.61-20.5 2.44-30.75.12-1.47-.13-3.08 1.53-4.48 1.68 1.44 1.1 3.42 1.13 5.12.14 8.76-.08 17.51 1.05 26.25.77 5.95 2.79 10.59 8.93 12.64 1.78.59 3.5 1.58 5.02 2.69 2.61 1.9 2.33 3.89-.71 4.9-2.52.84-5.17 1.26-7.76 1.89-.94.23-2 .61-2.14 1.63-.19 1.38 1.02 1.95 2.09 2.33 3.41 1.21 6.85 2.33 10.27 3.52 1.08.37 2.15.78 3.17 1.29 1.01.51 2.1 1.1 2.06 2.46-.04 1.4-1.2 1.9-2.28 2.22-3.11.91-6.25 1.69-9.37 2.56-1.28.36-2.53.83-3.79 1.28-.9.32-1.98.72-2.05 1.74-.1 1.47 1.26 1.8 2.34 1.98 5.27.87 10.53 1.76 15.66 3.23 2.38.68 4.81 1.34 6.75 2.97 1.7 1.42 1.61 2.96-.16 4.25-2.22 1.62-4.9 2.07-7.49 2.65-4.28.96-8.58 1.82-12.64 3.54-.88.37-1.75.78-2.19 1.79.37 1.91 2.09 1.99 3.47 2.32 8.34 2.03 16.78 3.7 25.38 3.78 11.43.11 22.87-.15 34.3-.26 1.12-.01 2.24-.17 3.86-.3-.79-2.18-2.55-2.52-3.97-3.13-6.67-2.87-13.64-4.84-20.63-6.72-2.2-.59-4.38-1.32-6.53-2.09-1.06-.38-2.18-.92-2.28-2.27-.1-1.36.94-2.02 1.96-2.53 1.36-.67 2.84-1.12 4.19-1.81 1.83-.93 2.06-2.18.34-3.47-1.37-1.02-2.95-1.79-4.23-2.91-2.09-1.81-2.05-3.47-.01-5.27 1.75-1.55 3.97-2.21 6.12-3 7.16-2.62 14.33-5.19 21.43-7.96 1.85-.72 4.89-1.29 4.71-3.52-.23-2.74-3.47-2.35-5.58-2.83-7.15-1.63-14.43-.75-21.65-.98-2.36-.07-5.96 1.24-6.73-1.33-.98-3.23 3.03-3.76 5.15-4.96 7.68-4.33 15.99-7.1 24.48-9.41 1.54-.42 3.94-.32 4.22-2.31.35-2.41-1.07-4.26-3.35-5.45-3.38-1.76-6.77-3.52-9.97-5.58-4.64-2.99-4.56-5.47.04-8.57 2.88-1.94 6.18-2.92 9.37-4.19 3.96-1.57 4.48-2.41 3.59-6.44-.76-3.41-.88-6.83-.51-10.23 1.07-9.86 3.39-19.5 5.57-29.16.11-.5.6-.91.96-1.41 1.99.9 1.44 2.57 1.31 3.96-1.06 11.4.12 22.42 5.26 32.84 1.52 3.09 2.41 6.49 2.22 9.96-.2 3.74 1.62 5.55 4.93 6.63 3.07 1.01 6.15 2.12 8.99 3.63 3.13 1.66 3.05 3.79-.1 5.37-1.85.93-3.92 1.48-5.95 1.96-4.63 1.1-9.3 2.04-13.95 3.09-1.2.27-2.75.11-3.13 2.44 3.13.49 6.23 1.03 9.36 1.43 3.02.4 6.06.68 9.09.98 5.03.49 7.68-1.33 8.25-6.4 1.15-10.22 3.24-20.32 3.79-30.61.1-1.8-.37-3.91 1.78-5.07 2.07 1.08 1.9 3.16 2.24 4.96 1.67 9.02 2.17 18.14 2.13 27.31-.02 4.75-.21 9.5.74 14.24.8 4 2.77 6.46 6.82 7.45 2.95.72 5.89 1.66 8.63 2.95 2.86 1.35 2.84 3.62-.05 4.97-2.74 1.27-5.73 2.03-8.66 2.86-3.67 1.05-7.37 1.99-10.82 3.63-1.33.64-3.12 1.15-2.99 3.03.15 2.11 2.13 1.74 3.54 2.05 5.43 1.19 11.01.8 16.48 1.6.94.14 1.89.26 2.83.43 1.46.27 3.56.11 3.74 1.91.19 1.86-1.98 1.92-3.3 2.55-3.41 1.62-3.51 2.74-.21 5 2.51 1.72 5.24 3.11 7.86 4.66.65.39 1.31.79 1.9 1.28 1.72 1.43 4.25 2.7 3.1 5.44-1.01 2.42-3.56 1.56-5.6 1.62-3.38.11-6.6-1.7-10.2-1.07 3.6 6.73 5.15 7.44 11.59 5.67 13.22-3.65 26.47-7.21 39.88-10.13 2.14-.46 4.49-.63 6.55-2.48-2.13-2.23-4.61-2.27-7.01-2.34-4.19-.12-8.39-.06-12.58-.18-1.51-.04-3.08-.14-4.48-.64-1.35-.48-1.54-1.77-.3-2.61 1.24-.84 2.68-1.43 4.09-1.97 6.23-2.38 12.51-4.62 18.7-7.1 2.46-.98 4.89-2.21 7.04-3.74 2.83-2 2.78-3.99-.16-5.78-2.92-1.78-6.11-3.09-9.16-4.66-5.9-3.03-6.28-5.8-1.46-10.33 3.58-3.35 7.93-5.15 12.58-6.46 4.91-1.38 5.15-2.11 2.74-6.72-1.68-3.21-3.46-6.36-5.09-9.59-1.33-2.63-1.79-5.41-.9-8.32 2.84-9.32 3.97-19.01 6.22-28.46.57-2.41 1.07-4.87 2.47-6.97 1.26-1.88 2.9-1.82 3.99.16 1.21 2.21 1.63 4.68 1.69 7.17.11 4.19.16 8.38.12 12.58-.07 7.29 2.69 12.56 10.15 14.59.55.15 1.09.38 1.59.64 5.16 2.7 9.63 2.24 14.8-1.06 8.16-5.21 17.05-9.31 25.62-13.89.66-.35 1.26-.8 1.69-2.01-3.69.79-7.38 1.58-11.07 2.36-4.1.86-8.2 1.75-12.31 2.52-.86.16-2.04.23-2.25-1.08-.14-.85.51-1.42 1.19-1.75 4.45-2.17 8.88-4.38 13.4-6.41 5.33-2.4 10.75-4.62 16.57-7.11-1.88-2.06-3.59-1.62-5.11-1.02-3.19 1.26-6.29 2.72-9.43 4.1-2.44 1.07-4.85 2.23-7.34 3.18-2.85 1.08-6.03 2.55-8.4-.5-2.36-3.05-3.95-6.57-2.28-10.64 1.34-3.26 3.69-5.75 6.14-8.16 1.85-1.81 3.72-3.59 5.8-5.59-3.5-2.23-7.4-.16-10.26-2.5.33-2.18 2.07-2.22 3.42-2.47 5.06-.92 10.12-1.9 15.22-2.48 5.22-.59 9.4-3.09 13.09-6.47 3.8-3.48 2.63-7.55-2.42-8.85-3.16-.82-6.44-.58-9.68-.53-3.05.05-6.09.26-9.14.28-1.45.01-3.36.42-3.89-1.49-.49-1.75 1.1-2.73 2.3-3.6 2-1.45 4.05-2.86 6.22-4.06 5.34-2.94 10.77-5.72 16.12-8.63 1.94-1.05 4.11-1.91 5.33-4.24-1.94-1.98-4.27-1.8-6.49-2.01-3.79-.37-7.58-.73-11.36-1.16-1.14-.13-2.34-.51-2.53-1.86-.15-1.04.64-1.78 1.45-2.29 1.77-1.11 3.58-2.18 5.41-3.2 3.5-1.95 6.92-4.03 9.96-6.66.87-.75 1.77-1.69 1.39-2.92-.4-1.29-1.71-1.4-2.85-1.44-3.43-.12-6.86.01-10.25.6-2.82.49-5.64.94-8.47 1.34-1.31.18-3 .52-3.57-.93-.77-1.97 1.28-2.48 2.47-3.18 3.62-2.11 7.33-4.07 11-6.09 3.51-1.93 6.96-3.99 10.02-6.58 3.66-3.09 3.4-4.44-.9-6.07-4.23-1.6-4.72-2.21-2.99-6.19 4.02-9.24 5.43-18.98 6.43-28.88.29-2.87.13-6.02 2.24-8.63 2.27 1.37 2.3 3.38 2.37 5.18.21 4.93.83 9.83.43 14.82-.47 5.88-.31 11.8-.38 17.71-.05 4.34 2.01 7.2 6.13 8.62 2.52.87 5.09 1.64 7.5 2.77 2.75 1.29 2.8 3.02.18 4.51-1.81 1.03-3.87 1.6-5.76 2.48-1.33.62-3.46.79-3.45 2.53.01 2.16 2.37 2.1 3.89 2.64 2.33.82 4.81 1.26 7.1 2.17 2.4.95 5.95 1.61 5.61 4.78-.35 3.3-4.03 2.98-6.53 3.19-6.5.53-12.85 1.66-18.98 3.87-1.35.49-3.08.57-3.67 2.68 2.24 1.92 5.01 1.2 7.51 1.19 10.79-.04 21.26 1.64 31.3 5.63 1.76.7 3.46 1.61 5.05 2.63 1.28.82 2.54 1.9 2.26 3.68-.29 1.82-1.89 2.22-3.36 2.63-2.42.68-4.92.6-7.39.47-9.13-.5-18.25-1.05-27.38-1.6-1.09-.07-2.2-.34-3.69.68 2.92 2.13 6.14 2.67 8.96 4 3.66 1.72 6.08 3.74 6.51 8.39.46 5.06 2.96 9.79 4.99 14.51.43 1.01 1.27 1.91 2.09 2.68 2.29 2.15 3.62 2.07 5.58-.57 2.61-3.52 5-7.2 7.56-10.75 5.02-6.96 10.14-13.85 16.47-19.7 7.8-7.22 11.27-6.73 17.14 2.16 1.09 1.65 1.63 3.38 1.87 5.32.2 1.62-.4 3.47 1.34 4.95 2.16-1.08 3.03-3.29 4.19-5.13 9.58-15.13 18.68-30.56 28.68-45.44 20.55-30.57 42.81-59.79 67.35-87.27 14.34-16.07 29.23-31.61 44.05-47.23 3.67-3.87 7.57-7.52 11.93-10.64 9.39-6.7 15.69-5.39 21.64 4.62 1.46 2.45 2.66 5.06 3.92 7.62 8.3 16.78 19.59 31.28 33.35 43.91 2.53 2.32 5.22 4.46 8.27 6.07 2.29 1.21 4.38 1.1 6.09-1.1.58-.75 1.18-1.51 1.86-2.17 3.78-3.61 8.34-3.86 12.32-.46 2.31 1.97 4.28 4.34 6.52 6.41 6.03 5.56 12.61 8.22 20.86 4.69 5.2-2.23 10.1-.53 14.47 2.73 5.72 4.26 10.67 9.4 14.47 15.31 19.15 29.81 45.06 53.57 69.52 78.65 13.97 14.32 27.82 28.76 40.05 44.65 7.48 9.72 13.59 20.27 18.9 31.26 7.21 14.91 18.84 25.2 33.04 32.93 7.53 4.1 15.24 7.86 22.95 11.62 4.83 2.35 5.23 2.23 8.42-2.26a596.655 596.655 0 0 1 37.55-47.52c8.84-10.09 18.26-19.46 30.13-26 2.32-1.28 3.56-3.34 4.89-5.43 8.19-12.87 16.82-25.43 26.58-37.19 4.27-5.14 8.79-10.05 14.32-13.9 5.98-4.17 9.83-4.04 15.58.39 3.69 2.85 6.35 6.61 8.76 10.47 5.15 8.24 10.03 16.64 15.09 24.94 1.38 2.27 2.88 4.5 4.53 6.58 3.93 4.97 8.27 6.13 14.15 3.81 4.13-1.64 7.6-4.3 10.85-7.3 12.04-11.12 19.95-24.92 25.88-39.96 7.68-19.51 15.29-39.04 25.81-57.27 3.34-5.79 6.96-11.38 11.86-16.02 6-5.68 9.66-5.84 15.84-.6 1.45 1.23 2.83 2.55 4.2 3.87 17.52 16.97 34.91 34.08 52.59 50.88 23.07 21.91 46.34 43.61 69.61 65.31 5.15 4.8 10.61 9.31 17.12 12.28 7.81 3.58 12.21 2.33 17.14-4.72 3.19-4.55 5.42-9.62 8.16-14.42 4.96-8.7 9.59-9.14 16.22-1.47 5.12 5.92 9.16 12.65 13.68 19.02 13.02 18.34 26.54 36.3 40.27 54.12.68.88 1.16 2.02 2.48 2.27 1.78-.43 1.43-2.01 1.59-3.22.29-2.16 1.15-3.94 2.69-5.53 4.3-4.43 7.4-4.98 12.59-1.5 7.32 4.9 13.72 10.89 19.6 17.44 4.9 5.46 7.26 5.2 10.81-1.36.63-1.17 1.54-2.36 1.68-3.61.62-5.77 4.45-7.95 9.47-9.01.91-.19 1.79-.57 2.63-1.61-2.26.17-4.52.45-6.79.5-7.05.17-14.1.27-21.15.38-.76.01-1.53-.03-2.28-.12-1.34-.16-2.91-.36-3.23-1.86-.41-1.89 1.22-2.69 2.64-3.2 7.21-2.62 14.67-4.11 22.33-4.41 4.13-.16 8.28-.03 12.47-.65-3.84-2.85-8.27-3.11-12.62-3.54-2.84-.28-5.72-.26-8.49-1.04-.92-.26-1.93-.58-2.1-1.67-.23-1.43.9-2.06 1.96-2.4 2.35-.77 4.76-1.34 7.14-2.02 1.4-.4 3.12-.03 4.21-1.89-1.57-1.51-3.79-1.55-5.64-2.35-1.06-.46-2.39-.83-2.46-2.09-.07-1.34 1.24-1.77 2.35-2.09 1.46-.42 2.96-.75 4.42-1.17 5.23-1.52 6.16-2.64 6.19-8.05.03-5.14-.2-10.29-.13-15.43.03-2-.41-5.25 1.82-5.45 2.72-.25 1.98 3.1 2.38 4.94 1.31 5.95 2.21 11.96 5.18 17.46 1.84 3.41 1.59 3.55-2.39 5.18-.7.29-1.49.4-1.99 1.78 6.18 5.32 14.75 6.67 22.83 11.51-4.8 2.07-8.25.47-11.65.35-3.32-.12-6.69-.81-11.02.49 3.36 3.15 6.81 4.14 9.92 5.74 2.01 1.03 5.9.89 5.31 3.88-.45 2.29-4 1.1-6.15 1.44-3.29.52-6.62.83-10.92 1.34 3.17 2.37 5.93 3.04 8.49 4.1 4.58 1.9 9.2 3.69 13.71 5.72 1.43.64 3.66 1.33 3.06 3.45-.51 1.79-2.59 1.12-4.03 1.14-4.19.05-8.39-.13-12.57-.02-2.24.06-5.27-.04-5.82 2.53-.57 2.67 2.46 3.46 4.38 4.51 4.13 2.26 8.77 2.4 13.31 2.84 3.56.34 7.12.63 11.03 2.14-2.24 2.81-5.36 1.06-7.83 2.49 2.53 2.09 4.95 3.85 7.09 5.91 2.93 2.81 3.25 4.81 1.68 7.58-1.54 2.72-3.57 3.67-7.35 2.74-3.88-.96-7.63-2.39-11.45-3.57-2.16-.67-4.29-1.53-6.89-.82 8.14 2.78 16.28 5.55 24.42 8.33l-.3 1.56c-5.75 1.36-11.38-1.79-17.29-.85 7.89 3.18 15.61 6.94 23.73 9.34 5.62 1.66 11.3-.85 16.07-4.12 2.5-1.71 2.53-4.97 2.5-7.88-.03-3.04-.26-6.12.85-9.04.47-1.25 1.07-2.55 2.71-2.52 1.33.03 1.94 1.11 2.45 2.13 1.46 2.92 2.17 6.09 3.03 9.21.86 3.12 1.58 6.32 2.83 9.28 1.68 3.99 1.19 7.46-1.64 10.59-5.32 5.89-3.84 7.16 3.1 8.34 3.19.55 6.2 1.96 8.54 4.36 1.98 2.03 1.85 3.73-.69 5.01-2.7 1.37-5.66 2.24-8.49 3.37-1.06.42-2.24.93-2.1 2.33.11 1.03 1.1 1.51 1.97 1.9 4.2 1.88 8.66 2.92 13.06 4.13 3.31.91 6.61 1.82 9.89 2.83.86.26 1.85.75 1.57 1.97-.2.87-1.07 1.12-1.8 1.17-2.28.14-4.57.2-6.85.22-3.39.03-6.79.01-11.18.01 1.66 2.31 3.26 2.25 4.57 2.5 11.97 2.3 23.98 4.44 35.93 6.81 3.2.64 5.45-.23 7.4-2.83-1.83-1.09-3.47-.27-5.09-.12-1.51.15-3.03.33-4.54.33-1.16-.01-2.41-.37-2.83-1.57-.54-1.57.63-2.51 1.82-3.15 1.84-1 3.77-1.82 5.64-2.76 1.48-.74 3.3-.94 4.24-2.42-.31-2.2-3.21-1.54-3.53-4.22 6.96-2.02 14.4-1.26 21.41-2.55.34-2.04-1.09-2.13-2.07-2.38-3.5-.91-7.04-1.67-10.56-2.52-1.66-.4-3.33-.82-4.96-1.35-.9-.29-1.79-.84-1.84-1.93-.05-1.12.82-1.71 1.74-1.98 2.37-.71 4.74-1.46 7.17-1.92 3.78-.71 5.59-3.1 5.92-6.68.26-2.84.33-5.71.29-8.56-.07-4.41.41-8.76 1.31-13.05.41-1.96.42-4.18 2.54-5.81 1.92 1.5 1.89 3.69 2.02 5.61.34 5.36 1.81 10.51 2.71 15.76.71 4.14 2.37 5.28 6.78 5.13 2.28-.08 4.59-.08 6.84-.41 13.77-2.04 26.18 3.28 38.84 7.15 1.7.52 4.61 1.11 4.28 3.08-.45 2.7-3.45 1.47-5.34 1.54-4.57.18-9.15.06-13.72.1-3.04.03-6.03.38-9.29 1.65 1.34 2.3 3.57 2.46 5.41 3 5.12 1.5 10.3 2.8 15.45 4.18.37.1.75.18 1.1.32 2.22.9 5.55.72 6.01 3.58.46 2.8-3.29 2.62-4.77 4.6.56 1.7 2.36 1.4 3.6 1.99.87.41 1.91.81 1.96 1.85.07 1.4-1.17 1.85-2.27 2.16-1.28.37-2.59.6-3.9.88-6.88 1.46-13.78 2.82-20.73 5.12 8.18 2.69 45.84 1.14 55.04-2.33-3.13-2.32-6.66-2.01-9.79-2.85-2.38-.64-4.84-1-7.23-1.64-.88-.23-1.77-.83-1.84-1.94-.07-1.12.72-1.81 1.61-2.12 1.97-.69 3.98-1.29 6.02-1.74 2.23-.49 4.5-.82 6.76-1.11 2.26-.29 4.53-.47 7.45-1.56-3.23-1.83-6.41-1.76-9.3-2.58-1.89-.53-5.03-.01-5.04-2.58-.01-2.5 3.15-2.08 5.01-2.75 2.66-.96 5.65-.93 8.55-2.89-2.06-1.94-4.55-1.73-6.79-2.16-1.14-.22-2.45-.46-2.56-1.82-.11-1.3 1.06-1.96 2.11-2.42 1.57-.68 3.16-1.35 4.8-1.83 3.51-1.03 5.23-3.43 6.05-6.88.95-3.95.82-7.94.98-11.93.1-2.6-.55-5.29.64-7.83 2.1.28 1.83 1.86 1.98 3.07.74 5.86 1.48 11.72 2.06 17.59.26 2.67 1.18 4.4 3.75 5.78 3.48 1.87 6.65 4.3 10.42 5.68 1.06.39 2.22 1.1 2.13 2.39-.1 1.4-1.44 1.56-2.57 1.77-.75.13-1.51.22-2.24.43-1.52.43-2.88 1.06-3.09 2.91-.2 1.76.65 3 2.1 3.73 2.03 1.03 4.14 1.93 6.26 2.76 2.31.9 4.68 1.62 7 2.48.9.33 1.88.86 1.93 1.88.05 1.14-1.09 1.27-1.94 1.71-4.91 2.5-10.25 3.62-15.6 4.91 4.27.66 8.57.72 13.35 2.63-3.21 2.7-6.29 1.03-9.37 2.23 3.22 2.29 7.74.53 10.13 3.7-.97 2.43-3.34 1.84-4.94 2.88 5.06 2.33 10.99 1.79 15.74 5.24-5.58.87-11.16-.34-17.68.59 4.07 1.94 7.77 2.2 11.15 3.36 1.98.68 5.53.31 5.2 2.97-.27 2.13-3.61.97-5.58 1.09-3.23.2-6.48.09-9.71.22-1.81.07-3.71.03-5.57 1.51 2.82 1.94 6.31 1.29 8.82 3.47-1.05 2.48-3.53 2.08-5.28 2.9-2.24 1.06-5.01 1.73-4.77 4.89.23 3.01 2.88 3.98 5.29 4.43 4.11.78 8.29 1.19 12.45 1.64 1.7.19 3.43.02 5.14.14 1.84.13 4.46-.43 5.03 1.68.63 2.33-2.27 2.56-3.68 3.66-1.41 1.11-4.06 1.63-3.21 4.02.8 2.23 3.01 1.53 4.96 1.25 5.42-.79 10.88-1.36 16.48-2.8-2.63-.48-5.27-.93-7.89-1.47-.89-.18-1.99-.34-2.12-1.54-.13-1.24.97-1.49 1.82-1.82.7-.28 1.46-.42 2.2-.61 6.46-1.68 7.25-2.62 7.55-9.39.13-2.86.05-5.72.24-8.57.13-1.98.07-4.11 1.96-5.88 1.76 1.69 1.45 3.67 1.53 5.48.15 3.43.45 6.83.76 10.25.37 4.09 1.49 7.19 5.57 9.1 2.75 1.29 2.68 2.51.82 4.97-.57.76-1.33 1.36-1.92 2.11-1.25 1.58-.41 2.5 1.15 2.87 2.96.7 5.97 1.2 8.94 1.88.91.21 1.92.7 1.95 1.78.02 1.14-1.01 1.45-1.94 1.75-3.16 1.02-6.71.99-9.88 3.4 2.54 2.33 5.49 2.46 8.06 3.44 1.03.39 2.42.67 2.48 2.03.07 1.83-1.65 1.87-2.85 2.16-3.23.76-6.73.21-10.26 2.03 9.43 3.39 19.14 4.69 28.29 9.22-2.28 2.7-4.64 1.62-6.68 1.49-3.22-.21-6.42-.83-9.64-1.13-1.49-.14-3.38-.22-3.86 1.61-.52 1.98 1.02 3.09 2.62 3.92 1.77.92 3.67.95 5.59.77 2.46-.23 4.92-.73 7.38-.73 3.11-.01 4.56-2.52 6.54-4.09 1.46-1.17.15-2.74-.82-3.97-.98-1.24-2.6-1.95-2.04-4.25.87-3.58.69-3.34 4.32-4.12 5.78-1.24 11.37.27 17.04.57.72.04 1.53.26 1.73 1.39-1.01 1.73-2.97.92-4.47 1.41-.93.3-1.91.56-2.19 1.58-.37 1.33.63 2.12 1.51 2.82 1.56 1.25 3.3 1.83 5.33 1.25 1.28-.36 2.58-.75 3.89-.84 2.84-.2 3.96-1.76 4.17-4.43.23-2.85.61-5.68 1.04-8.51.27-1.79.09-3.84 2.09-4.96 1.85.93 1.43 2.64 1.54 4.05.38 4.94.71 9.85 3.2 14.36 1.09 1.97.83 2.12-4.15 5.33 4.45-.23 7.84 1.77 11.72.77-.86-2.17-4.14-.64-3.95-2.84.2-2.37 2.76-2.1 4.53-2.5 4.54-1.03 5.18-1.73 5.62-6.45.28-3.03.08-6.11.9-9.09.2-.73.42-1.54 1.27-1.7 1.24-.24 1.73.77 1.94 1.65 1.27 5.18 2.51 10.36 3.63 15.57.5 2.3-1.85 2.93-3.56 4.22 4.99 1.13 9.71-.2 14.53 1.99-3.56 3.66-8.48 2.91-12.32 5.64 1.39 1.06 2.98.57 4.27 1 3.15 1.04 3.77 3.11 1.38 5.52-1.45 1.47-3.35 2.49-5 3.78-2.58 2.03-2.42 3.58.58 4.96 1.37.63 2.9.93 4.35 1.4.89.29 2 .44 1.98 1.67-.02 1.15-1.06 1.52-1.93 1.78-5.32 1.62-10.85 2.15-16.34 2.61-18.99 1.58-38 2.4-57.07 2.53-28.77.2-57.55.44-86.3 1.4-19.43.65-38.88.21-58.29 1.05-22.48.97-44.97.43-67.43 1.23-11.43.41-22.87.29-34.27.87-7.78.39-15.51 1.74-23.27 2.58-8.71.94-17.43 1.66-26.2 2.02-13.33.56-26.63.73-39.97.02-13.14-.71-26.19-2.11-39.23-3.78-1.78-.23-4.66-.08-4.81-2.14-.21-2.78 2.92-2.41 4.76-2.8 14.91-3.15 29.89-6.07 44.25-11.36 4.11-1.51 8.15-3.22 12.18-4.94 1.39-.59 2.68-1.44 3.97-2.25.82-.52 1.57-1.27 1.46-2.29-.14-1.31-1.26-1.91-2.39-2.14-3.92-.8-7.86-1.53-11.88-1.54-10.1-.02-20.2-.23-30.3-.04-23.81.45-47.57 2-71.35 3.07-14.26.64-28.53 1.82-42.83 1.45-2.87-.08-5.73-.13-8.49-.97-4.87-1.48-5.73-4.09-2.51-7.93 2.21-2.64 4.87-4.83 7.67-6.83 12.08-8.66 24.22-17.23 36.25-25.97 8.95-6.5 17.31-13.74 25.17-21.53 1.49-1.47 2.9-3.03 4.23-4.65 3.01-3.68 3.02-3.74-.24-7.54-6.45-7.52-13.38-14.63-19.14-22.73-3.08-4.34-6.11-8.66-7.46-14.03-1.57-6.25 1.21-13.31 7.63-17.73 1.86-1.28 3.55-1.27 4.98.63.92 1.22 1.82 2.45 2.67 3.71 6.6 9.8 13.18 19.61 19.79 29.41 1.04 1.55 1.87 3.29 3.74 4.64 2.19-2.39 2.16-5.33 2.44-7.98.83-7.79.56-15.61.1-23.41-.13-2.17-.85-4.09-2.11-5.83-10.06-13.94-15.87-29.9-21.72-45.82-3.22-8.76-6.12-17.64-9.24-26.44-1.27-3.59-2.68-7.15-4.96-10.26-.9-1.22-1.89-2.57-3.71-2.03-1.46.44-1.87 1.83-2.15 3.14-1.32 6.2-1.56 12.45-.96 18.76.96 10.05 1.91 20.1 2.69 30.16.57 7.25-.16 14.46-1.2 21.64-1.57 10.82-6.65 19.91-14.35 27.35-5 4.84-6.03 9.3-3.69 16.09 3.91 11.35 1.6 22.57-4.1 33.06-6.06 11.14-14.92 19.82-25.07 27.02-15.52 11.01-11.46 10.16-29.79 8.99-3.99-.26-8-.15-12-.26-.73-.02-1.55-.05-1.96-1.39 1.56-2.2 4.31-3.19 6.65-4.59 10.66-6.36 20.98-13.17 30.36-21.34 9.06-7.89 16.39-17 19.82-28.78.32-1.09.54-2.21.7-3.33.04-.3-.28-.65-.57-1.28-2.01.84-3.1 2.72-4.58 4.09-1.96 1.81-3.86 3.68-5.89 5.4-1.18 1-2.64 1.75-4.18.77-1.49-.95-1.65-2.59-1.36-4.09.61-3.17 1.27-6.36 2.21-9.45 3.39-11.13 7.58-21.97 11.71-32.84 4.34-11.4 8.55-22.84 11.31-34.76 1.21-5.21 1.99-10.45 1.9-15.84-.13-8.57.06-17.14.92-25.69.21-2.13 1.01-5.21-1.48-6.16-2.17-.83-3.5 1.91-4.73 3.46-10.55 13.29-21.77 26-33.27 38.46a81.415 81.415 0 0 1-8.76 8.17c-1.09.88-2.37 2.61-3.87 1.16-1.34-1.29-.08-2.89.66-4.15 1.54-2.63 3.14-5.23 4.9-7.72 8.82-12.43 17.76-24.78 26.52-37.26 2.95-4.2 5.56-8.65 8.23-13.05 1.52-2.51 2.17-5.3 1.75-8.23-.33-2.33-1.63-3.03-3.58-1.74-1.73 1.14-3.26 2.62-4.72 4.1-5.64 5.74-9.97 12.49-14.51 19.09-22.83 33.18-47.66 64.74-76.01 93.44-7.66 7.75-16.27 14.38-24.7 21.22-1.01.82-2 1.83-3.92 1.26-.57-1.97.83-3.39 1.82-4.89 18.15-27.33 37.77-53.56 58.25-79.17 8.93-11.16 17.8-22.37 26.07-34.03 1.87-2.63 3.92-5.18 4.85-8.37.38-1.33.57-2.69-.53-3.75-1.3-1.26-2.81-.87-4.25-.21-2.11.97-3.75 2.58-5.43 4.13-11.59 10.68-19.68 23.65-25.21 38.33-1.48 3.92-3.19 7.75-4.93 11.56-4.66 10.22-12.37 17.17-22.79 21.27-6.2 2.44-12.31 5.12-18.47 7.69-17.79 7.43-27.55 21.57-32.81 39.41-2 6.77-3.07 13.75-4.29 20.69-.69 3.94-1.39 7.9-3.11 11.56-2.46 5.23-6.35 6.82-11.72 4.68-4.65-1.85-8.75-4.62-12.37-8.09-2.75-2.64-5.43-5.36-8.25-7.92-3.7-3.35-8.05-4.11-12.8-2.81-3.89 1.07-7.48 2.87-10.89 4.97-2.84 1.75-3.07 2.69-1.12 5.55 2.79 4.09 5.8 8.03 8.77 12 12.15 16.26 27.07 29.32 44.81 39.24 14.17 7.92 27.17 17.61 40.03 27.48 10.13 7.78 20.29 15.51 30.99 22.49 19.35 12.61 40.37 20.45 63.53 22.16 1.78.13 3.8-.22 5.89 2.16-4.33.9-8.03.46-11.67.27-19.78-1.04-39.55-2.16-59.33-3.25-17.87-.99-35.74-2.05-53.62-2.98-10.46-.54-20.94-.81-31.41-1.16-23.61-.79-47.23-1.31-70.85-1.79-33.73-.68-67.45-1.03-101.17-.47-23.8.4-47.63.58-71.4 2.17-6.64.44-13.26 1.35-19.88 2.11-1.23.14-2.74-.05-3.44 1.89 2.19 1.61 4.9 1.75 7.43 2.24 17.96 3.49 35.93 6.9 53.23 13.08 3.42 1.22 6.78 2.56 9.82 4.58 1.76 1.17 3.69 2.39 3.36 4.87-.33 2.44-2.49 3.26-4.49 3.9-5.49 1.74-11.21 2.4-16.91 2.48-22.29.3-44.58.65-66.86-.71-10.83-.66-21.7-.54-32.55-1.2-19.77-1.21-39.58-1.72-59.36-2.77-26.43-1.4-52.86-3-79.28-4.56-19.01-1.12-38.02-2.3-57.03-3.48-23.19-1.44-46.4-2.63-69.55-4.45-33.06-2.61-65.97-6.56-98.26-14.46-4.62-1.13-9.13-2.69-13.64-4.24-1.59-.54-3.15-1.43-4.44-2.51-1.68-1.39-1.39-3.06.54-4.13 1.52-.84 3.24-1.03 4.94-1.31 7.58-1.24 15.2-.87 22.82-.83 12.58.07 25.16.16 37.55-2.58 3.91-.86 7.82-1.75 11.43-3.55 1.69-.84 3.76-1.61 3.7-3.89-.07-2.58-2.38-3.2-4.34-3.92-1.25-.46-2.55-.81-3.86-1.04-6.96-1.19-13.96-1.85-21.02-1.87-2.07-.01-3.62.22-3.97 2.9-.44 3.38-3.54 4.26-6.16 5.28-7.51 2.93-15.46 4.09-23.35 5.36-23.13 3.73-46.47 5.98-69.67 9.21-15.09 2.1-30.21 4.12-45.01 7.85-2.49.63-6.64.68-6.63 3.3.01 3.15 4.27 3.06 6.84 3.64 11.16 2.51 22.51 3.91 33.85 5.37 9.82 1.27 19.68 2.34 29.37 4.42 1.96.42 4.95.42 5.02 2.87.08 2.93-3.15 2.82-5.22 3.26-9.34 1.96-18.86 2.64-28.34 3.45-56.29 4.8-112.7 4.31-169.08 3.17-26.64-.53-53.28-1.98-79.88-3.91-19.18-1.39-38.36-2.73-57.63-2.83-18.66-.1-37.34-.54-55.99-1.29-17.34-.7-34.68-.39-52-1.06-22.26-.87-44.57-1.09-66.68-4.29-4.9-.71-9.75-1.71-14.62-2.63a18.79 18.79 0 0 1-3.29-.96c-1.39-.54-3.23-.95-3.13-2.83.08-1.54 1.74-1.78 2.99-2.25 1.78-.67 3.63-1.25 5.24-2.23 4.25-2.58 4.4-5.26.46-8.38-2.26-1.79-4.46-3.59-6.02-6.03-3.1-4.83-1.96-7.37 3.64-8.25 1.44-.23 3.08.34 4.27-1.01-2.57-3.1-5.53-4.48-16.99-7.92.03-.63.03-1.39.03-2.15Zm1270.36-23.42c-1.17-2.99-3.12-4.28-4.92-5.62-3.67-2.73-7.38-5.41-11.19-7.94-13.19-8.73-26.51-17.26-39.61-26.12-8.85-5.98-17.46-12.32-22.85-21.98-.91-1.64-2.31-3.02-3.61-4.41-8.35-8.91-17.3-17.19-26.73-24.94-21.09-17.34-44.74-30.28-69.94-40.56-18.9-7.71-38.35-13.81-57.81-19.9-13.65-4.27-27.12-9-39.78-15.8-11.45-6.15-20.22-14.84-25.66-26.71-4.86-10.63-11.2-20.37-18.08-29.75-15.89-21.68-33.62-41.9-50.22-63.02-3.05-3.88-6.41-7.6-10.07-10.9-18.39-16.6-36.46-33.52-54.07-50.95-11.1-10.99-22.32-21.87-34.65-31.51-3.46-2.71-7.04-5.25-11.13-6.93-5.26-2.16-7.55-.73-7.86 4.88-.28 5 .48 9.88 1.94 14.66 4.17 13.61 10.4 26.17 19.01 37.53 5.18 6.84 10.42 13.7 12.83 22.11 1.97 6.86-.46 10.67-7.43 11.94-4.35.79-8.73.5-13.09-.08-5.49-.74-11.02-1.02-16.54-.57-4.68.38-6.3 2.69-5.54 7.34.4 2.47 1.35 4.79 2.65 6.9 2.3 3.73 4.54 7.51 7.15 11.02 11.66 15.67 25.33 29.44 40.3 41.94 5.86 4.89 11.86 9.61 18.62 13.21 8.6 4.58 11.2 3.67 15.37-5.02 2.25-4.69 4.6-5.31 9.02-2.28a46.48 46.48 0 0 1 8.92 8c13.59 15.73 28.38 30.32 42.9 45.16 3.2 3.27 6.15 6.78 8.68 10.6 2.13 3.22 4.39 6.71 1.36 10.45-2.95 3.63-6.85 2.47-10.55 1.22-2.7-.91-5.3-2.2-8.06-2.89-3.21-.81-4.55.29-5.08 3.61-.15.93-.16 1.9-.15 2.85.1 17.14-.7 34.3 1.33 51.39.81 6.82 1.7 13.63 4.36 20.03 3.97 9.57 8.9 10.53 16.17 3.17 5.12-5.19 8.97-11.34 12.84-17.47 6.3-9.99 12.28-20.19 19.23-29.76 4.71-6.48 9.54-12.9 16.58-17.14 7.48-4.51 14.52-3.68 20.85 2.38 3.35 3.2 5.72 7.12 8.1 11.03 6.74 11.07 13 22.41 18.87 33.97 6.12 12.06 12.2 24.15 18.95 35.88.85 1.48 1.74 2.97 2.81 4.3 1.03 1.29 1.99 3.21 3.98 2.72 2.05-.51 1.91-2.61 2.06-4.28.14-1.71.14-3.43.15-5.14.13-13.02-2.51-25.76-4.11-38.59-.74-5.88-1.08-11.8-.46-17.67.6-5.7 4.09-7.49 9.29-5.13 2.62 1.19 4.83 3.01 7.02 4.88 7.13 6.08 13.25 13.13 19.42 20.13 16.14 18.29 32.27 36.58 50.81 52.55 15.14 13.04 31.8 22.97 52.03 25.67 5.47.73 10.97 1.33 16.42 2.23 18.04 2.99 36.05 6.16 54.09 9.13 4.78.78 9.68 1.31 15.08.18Zm-767.85-212.74c2.87.86 5.91.29 8.86.62 4.14.46 7.21-1.15 10.17-4 6.3-6.08 12.99-11.77 19.37-17.77 9.99-9.4 19.97-18.83 28.67-29.49 7.18-8.8 13.22-18.32 15.39-29.64 2.33-12.14 7.78-22.57 15.48-32.07 3.61-4.45 7.48-8.63 11.49-12.71 7.8-7.95 16.91-14.24 26.11-20.35 11.57-7.68 19.67-17.81 24.02-31 1.37-4.16 2.98-8.24 4.57-12.32 2.42-6.21 4.7-12.5 8.52-18.05 5.22-7.59 11.21-7.86 17.09-.68 2.78 3.4 5.02 7.15 6.8 11.2 4.51 10.24 6.47 21.1 7.8 32.09 1.97 16.25 2.39 32.67 5.32 48.83.55 3.01.3 6.07-.02 9.12-1.65 15.73-7.92 29.33-18.93 40.66-2.75 2.83-3.87 5.96-3.64 9.8.16 2.7.8 5.25 1.56 7.82 1.13 3.83 2.27 7.67 3.2 11.56 1.7 7.15.03 13.55-4.49 19.31-5.08 6.48-11.1 12.03-17.16 17.55-9.01 8.22-18.38 16.04-26.72 24.97-1.49 1.59-4.25 3.34-2.95 5.62 1.39 2.44 4.22.57 6.24.01 9.41-2.57 18.29-6.52 27.04-10.76 14.06-6.81 28.08-13.71 42.13-20.54 5.14-2.5 10.38-4.8 15.89-6.39 1.98-.57 4.27-1.49 5.79.64 1.49 2.1-.02 4.06-1.17 5.75-2.14 3.15-4.4 6.22-6.77 9.2-6.53 8.19-13.82 15.76-19.89 24.33-2 2.82-3.83 5.73-4.9 9-2.09 6.35-.23 10.32 5.92 12.77 3.01 1.2 6.11 2.11 9.35 2.56 5.09.7 10.23 1.25 15.23 2.36 7.11 1.57 9.43 5.35 8.38 12.5-.56 3.8-1.63 7.44-3.1 10.97-7.11 17.11-16.22 33.19-25.03 49.44-5.81 10.71-12.06 21.21-16.62 32.56a30.12 30.12 0 0 0-1.73 6.01c-.34 1.94.86 2.8 2.75 2.61 1.76-.18 3.19-1.2 4.68-2.03 7.67-4.26 15.52-8.14 23.63-11.48 3.35-1.38 6.76-2.71 10.43-2.84 3.7-.13 5.2 2 4.11 5.55-.68 2.22-2.01 4.11-3.38 5.94-5.01 6.72-10.11 13.37-15.1 20.11-4.76 6.44-9.27 13.06-13.35 19.95-1.18 2-2.91 3.98-2.3 6.81.83-.09 1.45-.01 1.91-.25 1.17-.62 2.33-1.3 3.39-2.1 8.7-6.58 16.63-14 23.37-22.58 17.93-22.83 29.51-48.78 37.38-76.54 6.09-21.48 8.51-43.36 6.66-65.61-1.73-20.77-6.4-40.99-12.01-61.02-5.14-18.34-11.04-36.47-15.7-54.95-3.56-14.14-5.06-28.54-4.61-43.04.29-9.33.73-18.66.49-27.99-.32-12.56-3.36-24.5-9.35-35.6-3.26-6.04-6.81-11.92-10.87-17.46-8.66-11.84-17.34-23.66-25.43-35.92-6.08-9.21-10.56-9.48-18.86-1.9-4.37 3.99-8.11 8.57-12.04 12.99-20.38 22.93-40.48 46.1-59.53 70.14-11.48 14.49-22.93 29.07-31.76 45.37-7.22 13.34-16.18 25.36-25.69 37.03-16.86 20.7-34.96 40.28-53.63 59.34-1 1.03-2.52 1.79-2.46 3.99Zm774.96-135.34c-1.94 1.22-2.18 2.84-2.8 4.18-3.77 8.12-7.31 16.35-11.23 24.4-11.41 23.48-26.76 44.23-43.69 64.01-15.97 18.68-31.25 37.95-44.48 58.73-6.57 10.32-12.39 21-16.15 32.71-2.38 7.44-4.71 14.89-7.11 22.33-3.42 10.61-4.04 8.81 5.82 13.07 16.52 7.15 32.48 15.17 45.35 28.16 2.06 2.08 3.81 1.78 6.01.3 13.12-8.85 26.11-17.86 37.29-29.19 7.79-7.88 14.28-16.85 21.32-25.36 7.4-8.93 14.05-18.57 23.99-25.09 1.24-.81 2.19-2.11 3.15-3.28.59-.71 1.23-1.64.69-2.6-.7-1.26-1.97-.96-3.05-.66a57.583 57.583 0 0 0-10.66 4.08c-10.59 5.33-20.25 12.15-29.89 18.98-11.19 7.94-22.27 16.02-33.47 23.95-2.48 1.75-5.2 3.16-7.87 4.63-1.34.74-2.91 1.4-4.28.26-1.63-1.35-1.06-3.17-.39-4.75 1.36-3.15 2.74-6.29 4.36-9.31 9.41-17.49 20.57-33.87 32.37-49.8 5.39-7.27 9.73-14.99 12.73-23.51 4.87-13.81 11.99-26.28 21.9-37.17 6.67-7.32 13.01-14.94 19.42-22.49 1.22-1.43 2.14-3.13 3.09-4.78.48-.83.66-1.84-.17-2.63-.78-.74-1.75-.67-2.68-.36-2.64.9-4.51 2.85-6.16 4.94-3.08 3.88-5.96 7.92-9.01 11.82-3.65 4.66-7.49 9.12-12.46 12.49-3.85 2.61-8.14 4.12-12.54 5.41-1.27.37-2.69.7-3.78-.39-1.38-1.38-.46-2.87.15-4.22.86-1.91 1.89-3.74 2.86-5.59 7.93-15 14.77-30.5 21.44-46.1 5.31-12.34 4.12-24.45-.07-37.17Zm-491.16 96.83c.15 2.24 1.24 3.31 2.11 4.45 3.24 4.26 6.14 8.74 8.67 13.43 7.45 13.85 12.25 28.46 10.24 44.39-2.49 19.66-4.03 39.38-5.23 59.15-.42 6.89.25 13.7 1.01 20.51.13 1.13.41 2.35 1.83 2.55 1.1.15 1.74-.69 2.2-1.52 1.11-1.99 2.24-3.99 3.17-6.07 1.72-3.82 3.31-7.7 4.94-11.56 1.11-2.65 2.44-5.18 4.25-7.41 3.53-4.34 7.46-4.81 11.95-1.42 2.45 1.85 4.42 4.18 6.14 6.73 1.81 2.69 3.57 5.4 5.4 8.07 7.25 10.59 15.49 20.29 25.79 28.08 3.35 2.54 6.88 4.84 10.97 6.01 4.46 1.28 6.63.4 9.15-3.52 1.45-2.24 2.71-4.6 4.18-6.82 6.9-10.37 7.38-21.31 3.07-32.74-4.62-12.27-12.19-22.31-22.64-30.23-5.64-4.27-11.64-7.98-17.78-11.42-10.69-5.99-19.24-14.03-26.11-24.23-11.71-17.37-23.75-34.53-37.39-50.49-1.68-1.96-3.1-4.2-5.92-5.94Zm320.87 57.12c.66 4.87-1.46 8.58-3.42 12.13-3.58 6.5-7.65 12.73-11.31 19.19-1.54 2.73-5.61 5.07-4.28 8.09 1.2 2.71 5.61 2.66 8.64 3.71 4.44 1.53 4.74 1.31 7.1-3.01.91-1.67 1.73-3.39 2.62-5.08 7.63-14.49 15.26-28.98 22.91-43.46 8.03-15.19 18.35-28.42 32.48-38.51 3.7-2.64 7.17-5.71 10.3-9.01 4.09-4.31 2.9-7.51-2.89-8.64-2.85-.56-5.73-.4-8.43.73-2.62 1.11-5.26 2.26-7.7 3.72-6.69 4.02-13.25 8.25-19.93 12.3-1.54.93-3.61 2.81-5.08 1.13-1.63-1.85.8-3.39 2-4.65 6.17-6.49 12.54-12.78 19.43-18.52 3.23-2.69 6.31-5.52 9.08-8.68 2.15-2.45 4-5.14 4.78-8.36.89-3.66-.81-5.58-4.57-4.98-2.03.32-4.05 1.09-5.94 1.96-25.53 11.67-46.51 28.9-62.38 52.06-9.79 14.29-19 28.99-28.47 43.5-3.43 5.26-6.93 10.49-10.3 15.79-2.41 3.79-2.17 4.47 2.12 6.16 5.31 2.1 10.75 3.89 16 6.13 3.31 1.41 5.59.71 8.12-1.7 8.97-8.57 17.54-17.47 24.5-27.81 1.03-1.48 1.7-3.44 4.62-4.19Zm-421.31-143.7c0-3.62.17-7.24-.05-10.85-.2-3.43-.98-6.81-2.88-9.77-2.62-4.08-5.63-4.76-9.63-2.06-1.72 1.16-3.27 2.63-4.71 4.13-10.55 10.99-21.24 21.86-31.52 33.1-10.41 11.38-20.85 22.75-30 35.21-2.03 2.76-4.04 5.55-5.81 8.48-3.91 6.43-2.86 8.88 4.54 10.94 2.2.61 4.47.97 6.66 1.63 5.36 1.61 6.6 4.36 4.39 9.5-1.52 3.54-4.01 6.46-6.29 9.51-6.05 8.08-12.89 15.55-18.55 23.93-1.39 2.05-2.85 4.09-3.57 6.48-.83 2.76.18 4.12 3.02 3.91 3.26-.24 6.3-1.39 9.25-2.76 8.57-3.99 15.9-9.75 22.75-16.13 18.66-17.36 34.36-37.16 48.1-58.58 9.15-14.24 15.25-29.39 14.3-46.67Zm-157.09 260.35c3.31.07 6.37-.91 9.44-2.01 6.36-2.27 11.74-6.25 17.38-9.78 11.93-7.47 24.12-14.58 34.74-23.97 2.75-2.43 5.02-5.18 6.83-8.35 1.26-2.2 1.82-4.09-1.04-5.68-3.42-1.9-4.08-5.29-3.96-8.88.08-2.5.88-4.86 1.66-7.21.83-2.53 1.84-5.02 2.45-7.6 1.1-4.66-.55-6.58-5.35-5.9-3.37.48-6.67 1.51-9.94 2.53-4.72 1.47-9.32 3.36-14.08 4.71-6.92 1.97-13.88 4.49-21.15 1.25-1.15-.51-2.32-.24-3.14.68-3.54 3.98-7.07 7.97-10.5 12.04-1.24 1.46-.86 2.73.91 3.66 2.86 1.5 5.66 3.12 8.49 4.69.99.55 2.05 1 2.55 2.15 1.5 3.42-1.18 10.11-4.82 11.4-6.94 2.44-13.31 5.61-17.74 11.82-1.06 1.49-2.59 2.3-4.44 1.02-2.66-1.84-4.21-.36-5.48 1.86-.47.82-.79 1.74-1.32 2.52-.66.99-1.6 1.89-2.81.93-4.19-3.33-6.67.5-9.29 2.44-2.37 1.76-2.04 3.88.6 5.51 4.05 2.5 8.43 4.4 12.89 6.09 5.52 2.1 11.15 3.8 17.12 4.08Zm-28.95-62.96c4.2 2.87 8.5 3.53 12.66 4.51 3.68.86 6.61-.12 9.12-3.12 3.06-3.64 6.32-7.13 9.75-10.43 7.89-7.59 14.37-15.97 18.77-26.22 3.81-8.88 9.2-17.09 13.83-25.63 1.04-1.92 2.4-3.82 2.23-6.3-9.11 1.89-41.67 29.47-47.79 40.31.93 1.33 2.4.8 3.64 1.03 2.61.5 5.27.85 7.84 1.5 1.64.42 3.65 1.19 3.32 3.28-.31 1.95-2.17 3.79-3.96 3.5-6.17-1.03-12.11 1.51-18.2.74-1.52-.19-3.1-.54-4.35.65-2.41 2.29-5.06 4.4-6.95 7.51 5.91 2.22 12.08 1.68 18.08 5.35-6.18 2.81-12.05 1.32-17.99 3.32Zm-99.6-18.15c2.5.01 4.36-.35 6.18-.98 13.48-4.66 25.64-11.62 36.39-21 1.13-.99 2.14-2.2 2.92-3.48 1.6-2.64 1.03-4.07-1.92-5.25-2.74-1.09-5.63-1.13-8.45-.68-3.19.51-6.32 1.41-9.48 2.08-4.66.99-9.27 2.11-13.98-.06-2.29-1.06-4.49.29-6.48 1.37-4.06 2.2-4.13 4.76-.22 7.12 1.95 1.18 4.17 1.92 5.79 3.6 2.72 2.82 2.41 5.55-1 7.43-1.82 1.01-3.89 1.55-5.8 2.41-2.43 1.09-4.92 2.16-6.65 4.31-1.13 1.41-.74 2.48 1.01 2.93.73.2 1.51.18 1.69.2Zm-202.68 58.95c1.71 1.3 3.86 1.35 5.84 1.89 6.04 1.63 12.23 2.77 17.84 5.76 2.96 1.58 4.53 3.68 4.07 7.32-.6 4.82.68 6.07 5.52 6.11 1.32.01 2.68-.06 3.96-.37 7.02-1.71 13.97-3.68 20.59-6.6 2.68-1.18 6.71-2.01 6.6-5.43-.12-3.83-4.35-4.27-7.35-5.11-8.61-2.42-17.53-3.26-26.28-4.98-9.73-1.91-19.3-.11-28.94.24-.72.04-1.55.14-1.85 1.17Zm133.57-11.53c2.7 3.78 4.78 6.26 6.37 9.03 1.64 2.86.59 4.18-2.74 3.97-.56-.04-1.12-.23-1.68-.28-6.4-.59-14.08 4.61-15.78 10.68-.81 2.89.16 4.43 3.09 4.68 2.3.2 4.52-.29 6.72-.95 10.76-3.23 21.14-7.4 31.01-12.78 2.67-1.46 5.31-3 7.51-5.12 3.41-3.29 2.89-6-1.42-7.74-.87-.35-1.81-.59-2.74-.77-9.75-1.9-19.52-.9-30.34-.72Zm-51.26-14.16c2.1 1.22 3.98 1.87 5.22 3.14 2.29 2.33 4.55 2.21 7.22.98 3.99-1.83 8.1-3.34 12.46-4.04 1.78-.29 3.38-.75 3.75-2.86.38-2.18.19-4.25-1.7-5.68-1.2-.91-2.53-1.75-3.93-2.29-3.9-1.5-7.91-2.73-11.81-4.26-6.98-2.75-13.85-1.26-20.73.37-.99.24-2.39.4-2.13 2.43 1.89.94 4.05 1.49 6.3 1.76 4.91.59 9.84 1.02 14.72 1.78 1.95.3 5.22-.39 5.52 1.77.39 2.81-3.12 2.52-5.02 3.37-3.01 1.37-6.58 1.34-9.87 3.53Zm-43.08 64.26c-5.08 0-9.62 1.01-12.61 2.72-2.12 1.21-3.58 2.75-3.3 5.42.48 4.52 8.35 11.96 12.95 12.21 1.34.07 2.74.03 3.82-.79 4.12-3.11 7.77-6.72 9.82-11.52 1.45-3.39.17-5.7-3.41-7.13-2.34-.93-4.82-.85-7.27-.91Zm1414.71-70.54c-2.74-2.64-5.99-3.03-9.02-3.96-1.78-.54-3.96-.97-3.97-3.4-.01-2.01 1.83-2.71 3.34-3.5.34-.18.73-.24 1.05-.44 1.37-.83 3.95-.68 3.68-2.87-.28-2.24-2.84-2.14-4.57-2.73-.69-.24-1.57-.35-2.24-.15-6.33 1.9-12.46.04-18.62-.92-2.84-.44-5.67-.78-8.5-.13-1.08.25-2.38.47-2.68 1.79-.29 1.3.74 2.07 1.6 2.8.72.62 1.49 1.19 2.3 1.68 10.05 5.97 20.7 10.44 32.19 12.79 1.62.34 3.34.92 5.44-.96Zm55.27 31.82c-7.77-.14-15.49-.67-23.18.39-2.05.28-5.37-.01-5.61 2.72-.21 2.45 2.82 3.31 4.82 4.23 10.44 4.79 21.47 7.72 32.69 9.96 1.66.33 3.68.78 4.62-1.1 1.14-2.25-.92-3.4-2.28-4.64-.7-.63-1.54-1.12-2.34-1.63-3.06-1.95-6.42-2.16-9.91-1.79-.92.1-1.99.17-2.48-.9-.47-1.01.23-1.78.71-2.59.83-1.4 2.88-1.93 2.96-4.65Zm114.52 7.4c-5.31-.87-10.57-2.09-15.89-1.59-9.83.93-19.69 1.75-29.42 3.54-2.05.38-4.12.82-5.9 2-1.25.83-1.26 1.86-.09 2.73.75.55 1.66.95 2.55 1.24 6.88 2.28 13.96 3.65 21.11 4.72 1.29.19 2.66.04 3.97-.1 1.46-.16 2.76-.96 2.53-2.52-.69-4.85 2.86-5.77 6.16-6.64 4.95-1.32 9.98-2.27 14.98-3.38Zm-1597.6 87.14c-2.36.13-5.03.17-7.66.44-2.83.29-5.65.75-8.29 1.89-1.93.83-3.14 2.19-2.3 4.48 1.54 4.17 9.59 8.09 13.83 6.49 5.32-2.01 10.53-4.32 15.77-6.53 1.18-.5 2.8-.75 2.94-2.33.17-1.85-1.46-2.5-2.81-3.15-3.56-1.75-7.42-1.14-11.48-1.29Zm-96.55 5.83c3.76-.07 8.25 1.29 11.8-.22 6.27-2.66 11.6-7.15 15.98-12.51 1.92-2.35 1.43-3.72-1.58-4.4-7.62-1.73-15.48-.88-23.18-1.88-1-.13-1.91.44-2.21 1.43-.33 1.07.39 1.77 1.27 2.25 1.81 1 4.19 1.7 4.4 4.04.24 2.65 1.65 3.03 3.76 2.98.94-.02 2.04.09 2.39 1.11.47 1.38-.64 2.13-1.65 2.58-3.63 1.6-7.31 3.08-10.98 4.62Zm185.7-154.13c-13.55-9.71-34.21-11.32-44.58-4.14 1.51 1.11 3.23 1.16 4.9 1.43 5.07.83 10.15 1.72 15.03 3.36 7.95 2.66 15.65.67 24.65-.65Zm209.22-117.66c-4.13-.14-12.15 8.13-11.93 12.29.25 4.58 6.33 7.85 10.15 5.27 3.47-2.34 6.32-5.43 8.86-8.77.58-.77.95-1.66.75-2.65-.35-1.7-5.96-6.08-7.83-6.14Zm1279.54 238.74c-3.21.09-6.49-.38-9.61.72-2 .7-4.11 1.64-4.06 4.17.05 2.24 1.96 3.14 3.83 3.68 8.31 2.41 16.14.77 23.67-3.03.86-.43 1.69-1.08 1.6-2.14-.11-1.4-1.34-1.72-2.43-2-4.26-1.09-8.6-1.49-13-1.4Zm-10.24-23.14c4.76.05 10.19-3.19 11.9-6.36.78-1.44.43-2.49-.79-3.43-3.36-2.61-16.44-3.42-19.84-1.24-1.49.96-2.28 2.35-1.18 3.8 2.78 3.66 6.05 6.74 9.91 7.23Zm-29.93-61.2c-.02-.38-.05-.76-.07-1.15-1.28-.24-2.57-.48-3.85-.73-9.14-1.77-17.63 1-26.08 3.83-1.61.54-3.33 1.48-2.89 3.63.39 1.89 2.26 1.67 3.69 2.01 3.13.75 6.26 1.49 9.37 2.31 4.54 1.2 5 1.1 9.28-2.61-3.55-1.19-7.55-.9-11.05-3.57 3.49-2.82 7.2-1.77 10.59-2.06 3.73-.32 7.41-.73 11.01-1.66Zm-91.62 39.19c.29 2.13 1.54 2.29 2.57 2.61 5.81 1.79 11.72 3.11 17.82 3.38 1.5.06 3.03-.02 4.52-.21 1.06-.14 1.62-.97 1.57-2.03-.16-3.26-6.68-9.18-10.04-8.73-5.79.78-11.16 2.99-16.44 4.98Zm-123.09-105.23c-.34.32-.68.65-1.01.97 4.26 5.25 8.5 10.53 12.79 15.75 1.18 1.44 2.9 1.75 4.66 1.56 2.26-.24 4.54-.44 6.75-.91 2.68-.57 2.97-1.82.98-3.88-.78-.81-1.69-1.53-2.63-2.15-6.82-4.46-14.06-8.12-21.54-11.34Zm-2.77-18.54c-1.39.06-7.1 3.16-7.89 4.31-.21.3-.41.65-.47 1-.31 1.96 4.77 7.71 6.88 7.43 3.56-.48 7.14-1.19 10.22-3.22 1.2-.79 1.77-1.93 1.13-3.43-.97-2.31-7.25-6.2-9.87-6.09ZM423.1 377.254v.07c-1.89.09-3.79.06-5.65.31-4.28.57-7.86 2.57-10.81 5.69-.66.69-1.2 1.57-.83 2.55.51 1.31 1.74 1.39 2.87 1.15 6.65-1.42 13.29-2.87 19.92-4.37 1.27-.29 2.84-.67 2.63-2.38-.2-1.61-1.42-2.75-3.03-2.96-1.68-.23-3.4-.06-5.1-.06Zm1450.46 60.65c3.86-1.34 6.8-3.35 10.33-6.86-8.54.56-15.88-.48-23.34 1.6 4.5 6.53 13.63 10.64 19.36 9.13-1.82-1.3-4.55-.88-6.35-3.87ZM505.32 270.614c-.16-.39-.33-.78-.49-1.17-4.91 1.3-9.77 2.8-14.42 4.89-1.53.69-3.54 1.67-1.81 3.76 2.38 2.87.86 4.82-1.03 6.93-.7.78-1.87 1.35-1.51 3.42 6.6-6.12 12.93-11.97 19.26-17.83Zm1142.17 90.33c-2.22-.97-3.83-.33-5.31.53-3.52 2.04-6.48 1.14-9.35-1.35-1.47-1.27-2.89-2.95-5.59-2.61.49 3.65 3.05 5.43 5.36 7.21 6.64 5.11 10.62 4.1 14.89-3.78ZM34.34 500.114c-2.43.03-4.05.52-5.51 1.47-.82.53-1.58 1.24-1.49 2.26.1 1.11 1.12 1.46 2.05 1.65 3.34.69 6.69 1.4 10.05 1.96 1.5.25 3.03.06 4.31-1 1.48-1.22 1.49-3.01-.28-3.54-3.25-.96-6.35-2.52-9.13-2.8Zm326.28-111.09c-2.5-1.79-4.55-3.01-6.65-1.05-3.57 3.35-6.51 7.19-7.4 12.37 4.85-3.23 9.5-6.61 14.05-11.32Zm1196.92-41.6c6.49 2.3 12.9 4.97 20.72 2.49-4.58-2.14-14.06-3.35-20.72-2.49Zm412.21 115.1c-4.55-2.67-8.73-.92-12.93.84 4.46 2.49 8.68.54 12.93-.84ZM408.27 345.034c-.31-2.13-1.9-2.68-3.63-2.87-1.32-.15-2.77-.11-3.13 1.6-.29 1.36 2.26 4.98 3.33 4.7 1.72-.45 2.77-1.78 3.43-3.43Z"/><path fill="#F7931E" d="M1131.68 108.804c.25 49.71-40.5 90.91-90.16 91.15-49.97.24-91.5-40.78-91.27-90.79.23-49.26 38.61-90.59 90.54-90.65 53.19-.07 90.49 42.44 90.89 90.29Z"/></svg>