<svg width="1994" height="555" viewBox="0 0 1994 555" fill="none" xmlns="http://www.w3.org/2000/svg">
<path d="M0.0300293 495.154C6.39003 494.694 12.7701 494.464 19.4301 493.084C13.7301 488.304 13.85 488.324 15.29 480.464C16.46 474.094 17.2601 467.664 18.3301 461.274C18.5601 459.904 18.54 457.664 20.48 457.864C22.38 458.064 21.92 460.254 22.02 461.684C22.42 467.194 22.63 472.714 23.11 478.214C23.61 484.084 24.38 484.894 29.88 486.534C30.25 486.644 30.63 486.704 30.98 486.834C32.73 487.484 35.3 487.704 35.41 489.834C35.55 492.554 32.63 491.674 31.03 492.334C30.16 492.694 29.29 492.974 28.76 493.874C33.16 495.974 36.79 495.664 44.37 492.564C42.98 490.134 38.96 490.714 38.42 487.744C37.93 484.994 40.34 482.914 40.87 480.284C42.23 473.534 42.45 466.664 43.22 459.864C43.38 458.424 42.81 456.794 44.22 455.584C46.07 455.854 45.9401 457.414 46.0701 458.634C46.7801 465.064 47.46 471.504 48.04 477.954C48.51 483.174 48.51 483.254 53.4 484.434C54.32 484.654 55.27 484.814 56.14 485.154C60.53 486.894 63.83 485.594 65.55 481.384C66.65 478.704 65.83 477.084 62.99 476.204C61.08 475.614 58.72 476.474 57 474.234C59.37 471.204 63.4301 472.974 66.5801 471.064C64.2601 468.294 61.1601 467.984 58.4401 466.954C56.9301 466.384 54.47 466.444 54.67 464.344C54.86 462.314 57.32 462.514 58.9 462.304C61.71 461.944 64.57 461.924 68.24 461.714C65.75 459.224 62.9 459.094 60.53 458.034C59.68 457.654 58.6 457.524 58.39 456.424C58.15 455.224 59.15 454.684 59.99 454.364C66.45 451.884 68.42 446.804 68.8 440.374C69.14 434.494 70.1001 428.644 70.8301 422.784C70.9401 421.904 70.67 420.824 72.15 420.064C72.92 429.094 74.3601 437.844 76.8301 446.394C77.5201 448.774 78.15 451.024 80.29 452.754C82.8 454.784 82.56 455.624 79.64 457.144C78.65 457.664 77.5501 457.954 75.3201 458.804C80.9201 460.414 85.92 458.784 91.12 460.794C86.81 464.034 82.38 462.734 77.99 463.934C79.45 465.804 81.42 465.574 83.01 466.104C84.56 466.614 86.48 466.264 87.73 468.444C83.08 469.824 78.38 469.624 73.14 470.404C77.3 471.634 81.25 470.924 85 472.884C82.42 476.174 78.19 474.124 75.62 476.484C77.7 477.214 79.81 476.554 81.86 476.814C85.18 477.244 85.8901 478.624 84.0701 481.334C83.3301 482.434 82.3 483.334 81.54 484.424C78.9 488.224 79.2301 489.944 83.0801 492.874C83.3801 493.104 83.7301 493.264 84.0701 493.444C85.6601 494.274 83.98 497.234 87.11 497.394C92.41 497.664 97.68 499.324 102.99 497.954C106.34 497.094 108.23 492.904 107.21 489.624C106.56 487.514 104.9 487.314 103.11 487.364C99.84 487.464 96.78 488.674 93.59 489.234C90.79 489.724 88.04 490.694 85.14 490.364C84.36 490.274 83.6301 489.794 83.5801 488.964C83.5501 488.494 83.9201 487.794 84.3201 487.534C85.7401 486.594 87.21 485.694 88.75 484.964C96.16 481.444 103.88 478.694 111.56 475.824C113.63 475.054 115.87 474.504 118.7 472.064C114.29 471.324 110.99 470.854 107.73 470.184C105.21 469.664 101.26 470.204 100.83 467.394C100.3 463.904 104.62 463.984 106.94 462.654C107.76 462.184 108.74 461.994 109.55 461.504C111.08 460.574 113.7 460.394 113.39 457.944C113.12 455.824 110.88 455.224 109.11 454.584C106.42 453.624 103.66 452.894 100.93 452.034C99.9801 451.734 99.11 451.124 99.12 450.084C99.12 449.064 99.98 448.444 100.88 448.034C104.56 446.394 108.46 445.514 112.35 444.564C115.88 443.704 116.15 442.884 114.29 439.924C114.19 439.764 114.06 439.624 113.96 439.464C112.43 437.104 109.65 435.264 109.85 432.174C110.06 428.864 113.43 427.994 115.58 426.254C117.22 424.924 117.65 423.164 117.95 421.244C119.22 412.944 119.11 404.534 119.85 396.184C120.03 394.164 119.6 392.024 120.71 390.204C122.63 390.104 122.55 391.434 122.75 392.484C123.88 398.334 123.47 404.254 123.66 410.154C123.76 413.384 123.94 416.624 124.28 419.834C124.68 423.644 126.68 426.094 130.63 426.874C132.67 427.274 134.64 428.064 136.63 428.744C137.55 429.054 138.47 429.624 138.4 430.704C138.33 431.774 137.36 432.284 136.41 432.474C132.68 433.224 128.93 433.904 125.19 434.624C123.9 434.874 122.51 434.754 121.08 435.774C122.82 437.524 125.07 437.394 127.1 437.654C131.82 438.244 136.58 438.594 141.29 439.234C143.18 439.494 145.89 439.204 145.33 442.594C141.01 443.074 136.7 443.534 132.39 444.044C131.49 444.154 130.3 444.214 130.55 445.584C130.73 446.584 131.59 447.254 132.6 447.184C133.71 447.114 134.84 446.824 135.9 446.464C139.11 445.354 142.37 444.354 145.3 442.564C153.42 439.214 153.76 436.804 146.97 431.384C145.11 429.904 141.74 428.934 142.38 426.164C143.13 422.934 146.8 423.844 149.25 423.504C154.71 422.754 160.3 423.284 165.71 421.834C167.94 421.234 170.11 420.574 172.01 419.234C176.54 416.024 176.81 411.464 172.71 407.694C171.14 406.254 169.23 405.394 167.32 404.514C165.8 403.814 163.94 403.654 162.99 401.584C165.94 397.954 171.55 399.144 175.04 395.454C170.67 392.774 166.12 392.884 161.67 392.464C157.28 392.054 152.7 393.424 147.9 391.344C151.16 387.534 155.5 387.174 159.26 385.734C162.94 384.324 166.73 383.184 170.46 381.934C170.42 381.554 170.39 381.174 170.35 380.794C166.47 380.794 162.6 380.814 158.72 380.794C154.86 380.774 150.96 381.454 147.06 380.264C153.36 376.234 160.78 375.374 167.59 372.344C165.64 370.494 163.27 370.994 161.47 369.954C160.63 369.464 159.69 369.044 159.73 367.934C159.77 366.854 160.65 366.264 161.56 366.004C164.48 365.154 167.45 364.434 170.38 363.614C171.43 363.324 172.87 363.144 172.52 361.574C172.26 360.404 171.01 360.634 170.11 360.604C168.02 360.514 165.92 360.554 163.83 360.424C163.11 360.384 162.28 360.134 162.08 359.234C161.81 357.994 162.76 357.414 163.62 357.244C166.78 356.584 169.98 356.094 173.17 355.564C174.78 355.294 176.58 355.764 177.84 354.674C177.97 353.684 177.62 353.104 177.1 353.044C169.9 352.194 163.51 349.074 157.11 345.984C154.96 344.944 154.72 343.774 156.73 342.254C159.02 340.514 161.71 339.474 164.35 338.364C167.69 336.954 171.02 335.524 173.89 333.244C176.13 331.464 177.39 329.284 176.88 326.294C176.46 323.794 175.34 322.044 172.63 321.644C171.31 321.454 169.96 321.284 168.72 320.834C166.26 319.954 166.02 318.484 167.9 316.584C168.17 316.314 168.45 316.004 168.78 315.864C174.58 313.604 177.84 307.894 183.34 305.204C185.99 303.904 185.96 301.204 186.16 298.744C186.99 288.494 187.77 278.244 188.6 267.994C188.72 266.524 188.47 264.914 190.13 263.514C191.81 264.954 191.23 266.934 191.26 268.634C191.4 277.394 191.18 286.144 192.31 294.884C193.08 300.834 195.1 305.474 201.24 307.524C203.02 308.114 204.74 309.104 206.26 310.214C208.87 312.114 208.59 314.104 205.55 315.114C203.03 315.954 200.38 316.374 197.79 317.004C196.85 317.234 195.79 317.614 195.65 318.634C195.46 320.014 196.67 320.584 197.74 320.964C201.15 322.174 204.59 323.294 208.01 324.484C209.09 324.854 210.16 325.264 211.18 325.774C212.19 326.284 213.28 326.874 213.24 328.234C213.2 329.634 212.04 330.134 210.96 330.454C207.85 331.364 204.71 332.144 201.59 333.014C200.31 333.374 199.06 333.844 197.8 334.294C196.9 334.614 195.82 335.014 195.75 336.034C195.65 337.504 197.01 337.834 198.09 338.014C203.36 338.884 208.62 339.774 213.75 341.244C216.13 341.924 218.56 342.584 220.5 344.214C222.2 345.634 222.11 347.174 220.34 348.464C218.12 350.084 215.44 350.534 212.85 351.114C208.57 352.074 204.27 352.934 200.21 354.654C199.33 355.024 198.46 355.434 198.02 356.444C198.39 358.354 200.11 358.434 201.49 358.764C209.83 360.794 218.27 362.464 226.87 362.544C238.3 362.654 249.74 362.394 261.17 362.284C262.29 362.274 263.41 362.114 265.03 361.984C264.24 359.804 262.48 359.464 261.06 358.854C254.39 355.984 247.42 354.014 240.43 352.134C238.23 351.544 236.05 350.814 233.9 350.044C232.84 349.664 231.72 349.124 231.62 347.774C231.52 346.414 232.56 345.754 233.58 345.244C234.94 344.574 236.42 344.124 237.77 343.434C239.6 342.504 239.83 341.254 238.11 339.964C236.74 338.944 235.16 338.174 233.88 337.054C231.79 335.244 231.83 333.584 233.87 331.784C235.62 330.234 237.84 329.574 239.99 328.784C247.15 326.164 254.32 323.594 261.42 320.824C263.27 320.104 266.31 319.534 266.13 317.304C265.9 314.564 262.66 314.954 260.55 314.474C253.4 312.844 246.12 313.724 238.9 313.494C236.54 313.424 232.94 314.734 232.17 312.164C231.19 308.934 235.2 308.404 237.32 307.204C245 302.874 253.31 300.104 261.8 297.794C263.34 297.374 265.74 297.474 266.02 295.484C266.37 293.074 264.95 291.224 262.67 290.034C259.29 288.274 255.9 286.514 252.7 284.454C248.06 281.464 248.14 278.984 252.74 275.884C255.62 273.944 258.92 272.964 262.11 271.694C266.07 270.124 266.59 269.284 265.7 265.254C264.94 261.844 264.82 258.424 265.19 255.024C266.26 245.164 268.58 235.524 270.76 225.864C270.87 225.364 271.36 224.954 271.72 224.454C273.71 225.354 273.16 227.024 273.03 228.414C271.97 239.814 273.15 250.834 278.29 261.254C279.81 264.344 280.7 267.744 280.51 271.214C280.31 274.954 282.13 276.764 285.44 277.844C288.51 278.854 291.59 279.964 294.43 281.474C297.56 283.134 297.48 285.264 294.33 286.844C292.48 287.774 290.41 288.324 288.38 288.804C283.75 289.904 279.08 290.844 274.43 291.894C273.23 292.164 271.68 292.004 271.3 294.334C274.43 294.824 277.53 295.364 280.66 295.764C283.68 296.164 286.72 296.444 289.75 296.744C294.78 297.234 297.43 295.414 298 290.344C299.15 280.124 301.24 270.024 301.79 259.734C301.89 257.934 301.42 255.824 303.57 254.664C305.64 255.744 305.47 257.824 305.81 259.624C307.48 268.644 307.98 277.764 307.94 286.934C307.92 291.684 307.73 296.434 308.68 301.174C309.48 305.174 311.45 307.634 315.5 308.624C318.45 309.344 321.39 310.284 324.13 311.574C326.99 312.924 326.97 315.194 324.08 316.544C321.34 317.814 318.35 318.574 315.42 319.404C311.75 320.454 308.05 321.394 304.6 323.034C303.27 323.674 301.48 324.184 301.61 326.064C301.76 328.174 303.74 327.804 305.15 328.114C310.58 329.304 316.16 328.914 321.63 329.714C322.57 329.854 323.52 329.974 324.46 330.144C325.92 330.414 328.02 330.254 328.2 332.054C328.39 333.914 326.22 333.974 324.9 334.604C321.49 336.224 321.39 337.344 324.69 339.604C327.2 341.324 329.93 342.714 332.55 344.264C333.2 344.654 333.86 345.054 334.45 345.544C336.17 346.974 338.7 348.244 337.55 350.984C336.54 353.404 333.99 352.544 331.95 352.604C328.57 352.714 325.35 350.904 321.75 351.534C325.35 358.264 326.9 358.974 333.34 357.204C346.56 353.554 359.81 349.994 373.22 347.074C375.36 346.614 377.71 346.444 379.77 344.594C377.64 342.364 375.16 342.324 372.76 342.254C368.57 342.134 364.37 342.194 360.18 342.074C358.67 342.034 357.1 341.934 355.7 341.434C354.35 340.954 354.16 339.664 355.4 338.824C356.64 337.984 358.08 337.394 359.49 336.854C365.72 334.474 372 332.234 378.19 329.754C380.65 328.774 383.08 327.544 385.23 326.014C388.06 324.014 388.01 322.024 385.07 320.234C382.15 318.454 378.96 317.144 375.91 315.574C370.01 312.544 369.63 309.774 374.45 305.244C378.03 301.894 382.38 300.094 387.03 298.784C391.94 297.404 392.18 296.674 389.77 292.064C388.09 288.854 386.31 285.704 384.68 282.474C383.35 279.844 382.89 277.064 383.78 274.154C386.62 264.834 387.75 255.144 390 245.694C390.57 243.284 391.07 240.824 392.47 238.724C393.73 236.844 395.37 236.904 396.46 238.884C397.67 241.094 398.09 243.564 398.15 246.054C398.26 250.244 398.31 254.434 398.27 258.634C398.2 265.924 400.96 271.194 408.42 273.224C408.97 273.374 409.51 273.604 410.01 273.864C415.17 276.564 419.64 276.104 424.81 272.804C432.97 267.594 441.86 263.494 450.43 258.914C451.09 258.564 451.69 258.114 452.12 256.904C448.43 257.694 444.74 258.484 441.05 259.264C436.95 260.124 432.85 261.014 428.74 261.784C427.88 261.944 426.7 262.014 426.49 260.704C426.35 259.854 427 259.284 427.68 258.954C432.13 256.784 436.56 254.574 441.08 252.544C446.41 250.144 451.83 247.924 457.65 245.434C455.77 243.374 454.06 243.814 452.54 244.414C449.35 245.674 446.25 247.134 443.11 248.514C440.67 249.584 438.26 250.744 435.77 251.694C432.92 252.774 429.74 254.244 427.37 251.194C425.01 248.144 423.42 244.624 425.09 240.554C426.43 237.294 428.78 234.804 431.23 232.394C433.08 230.584 434.95 228.804 437.03 226.804C433.53 224.574 429.63 226.644 426.77 224.304C427.1 222.124 428.84 222.084 430.19 221.834C435.25 220.914 440.31 219.934 445.41 219.354C450.63 218.764 454.81 216.264 458.5 212.884C462.3 209.404 461.13 205.334 456.08 204.034C452.92 203.214 449.64 203.454 446.4 203.504C443.35 203.554 440.31 203.764 437.26 203.784C435.81 203.794 433.9 204.204 433.37 202.294C432.88 200.544 434.47 199.564 435.67 198.694C437.67 197.244 439.72 195.834 441.89 194.634C447.23 191.694 452.66 188.914 458.01 186.004C459.95 184.954 462.12 184.094 463.34 181.764C461.4 179.784 459.07 179.964 456.85 179.754C453.06 179.384 449.27 179.024 445.49 178.594C444.35 178.464 443.15 178.084 442.96 176.734C442.81 175.694 443.6 174.954 444.41 174.444C446.18 173.334 447.99 172.264 449.82 171.244C453.32 169.294 456.74 167.214 459.78 164.584C460.65 163.834 461.55 162.894 461.17 161.664C460.77 160.374 459.46 160.264 458.32 160.224C454.89 160.104 451.46 160.234 448.07 160.824C445.25 161.314 442.43 161.764 439.6 162.164C438.29 162.344 436.6 162.684 436.03 161.234C435.26 159.264 437.31 158.754 438.5 158.054C442.12 155.944 445.83 153.984 449.5 151.964C453.01 150.034 456.46 147.974 459.52 145.384C463.18 142.294 462.92 140.944 458.62 139.314C454.39 137.714 453.9 137.104 455.63 133.124C459.65 123.884 461.06 114.144 462.06 104.244C462.35 101.374 462.19 98.224 464.3 95.614C466.57 96.984 466.6 98.994 466.67 100.794C466.88 105.724 467.5 110.624 467.1 115.614C466.63 121.494 466.79 127.414 466.72 133.324C466.67 137.664 468.73 140.524 472.85 141.944C475.37 142.814 477.94 143.584 480.35 144.714C483.1 146.004 483.15 147.734 480.53 149.224C478.72 150.254 476.66 150.824 474.77 151.704C473.44 152.324 471.31 152.494 471.32 154.234C471.33 156.394 473.69 156.334 475.21 156.874C477.54 157.694 480.02 158.134 482.31 159.044C484.71 159.994 488.26 160.654 487.92 163.824C487.57 167.124 483.89 166.804 481.39 167.014C474.89 167.544 468.54 168.674 462.41 170.884C461.06 171.374 459.33 171.454 458.74 173.564C460.98 175.484 463.75 174.764 466.25 174.754C477.04 174.714 487.51 176.394 497.55 180.384C499.31 181.084 501.01 181.994 502.6 183.014C503.88 183.834 505.14 184.914 504.86 186.694C504.57 188.514 502.97 188.914 501.5 189.324C499.08 190.004 496.58 189.924 494.11 189.794C484.98 189.294 475.86 188.744 466.73 188.194C465.64 188.124 464.53 187.854 463.04 188.874C465.96 191.004 469.18 191.544 472 192.874C475.66 194.594 478.08 196.614 478.51 201.264C478.97 206.324 481.47 211.054 483.5 215.774C483.93 216.784 484.77 217.684 485.59 218.454C487.88 220.604 489.21 220.524 491.17 217.884C493.78 214.364 496.17 210.684 498.73 207.134C503.75 200.174 508.87 193.284 515.2 187.434C523 180.214 526.47 180.704 532.34 189.594C533.43 191.244 533.97 192.974 534.21 194.914C534.41 196.534 533.81 198.384 535.55 199.864C537.71 198.784 538.58 196.574 539.74 194.734C549.32 179.604 558.42 164.174 568.42 149.294C588.97 118.724 611.23 89.504 635.77 62.024C650.11 45.954 665 30.414 679.82 14.794C683.49 10.924 687.39 7.27403 691.75 4.15403C701.14 -2.54597 707.44 -1.23598 713.39 8.77402C714.85 11.224 716.05 13.834 717.31 16.394C725.61 33.174 736.9 47.6741 750.66 60.3041C753.19 62.6241 755.88 64.764 758.93 66.374C761.22 67.584 763.31 67.474 765.02 65.274C765.6 64.524 766.2 63.764 766.88 63.104C770.66 59.494 775.22 59.244 779.2 62.644C781.51 64.614 783.48 66.984 785.72 69.054C791.75 74.614 798.33 77.274 806.58 73.744C811.78 71.514 816.68 73.214 821.05 76.474C826.77 80.734 831.72 85.874 835.52 91.784C854.67 121.594 880.58 145.354 905.04 170.434C919.01 184.754 932.86 199.194 945.09 215.084C952.57 224.804 958.68 235.354 963.99 246.344C971.2 261.254 982.83 271.544 997.03 279.274C1004.56 283.374 1012.27 287.134 1019.98 290.894C1024.81 293.244 1025.21 293.124 1028.4 288.634C1040.11 272.154 1052.63 256.324 1065.95 241.114C1074.79 231.024 1084.21 221.654 1096.08 215.114C1098.4 213.834 1099.64 211.774 1100.97 209.684C1109.16 196.814 1117.79 184.254 1127.55 172.494C1131.82 167.354 1136.34 162.444 1141.87 158.594C1147.85 154.424 1151.7 154.554 1157.45 158.984C1161.14 161.834 1163.8 165.594 1166.21 169.454C1171.36 177.694 1176.24 186.094 1181.3 194.394C1182.68 196.664 1184.18 198.894 1185.83 200.974C1189.76 205.944 1194.1 207.104 1199.98 204.784C1204.11 203.144 1207.58 200.484 1210.83 197.484C1222.87 186.364 1230.78 172.564 1236.71 157.524C1244.39 138.014 1252 118.484 1262.52 100.254C1265.86 94.464 1269.48 88.874 1274.38 84.234C1280.38 78.554 1284.04 78.394 1290.22 83.634C1291.67 84.864 1293.05 86.184 1294.42 87.504C1311.94 104.474 1329.33 121.584 1347.01 138.384C1370.08 160.294 1393.35 181.994 1416.62 203.694C1421.77 208.494 1427.23 213.004 1433.74 215.974C1441.55 219.554 1445.95 218.304 1450.88 211.254C1454.07 206.704 1456.3 201.634 1459.04 196.834C1464 188.134 1468.63 187.694 1475.26 195.364C1480.38 201.284 1484.42 208.014 1488.94 214.384C1501.96 232.724 1515.48 250.684 1529.21 268.504C1529.89 269.384 1530.37 270.524 1531.69 270.774C1533.47 270.344 1533.12 268.764 1533.28 267.554C1533.57 265.394 1534.43 263.614 1535.97 262.024C1540.27 257.594 1543.37 257.044 1548.56 260.524C1555.88 265.424 1562.28 271.414 1568.16 277.964C1573.06 283.424 1575.42 283.164 1578.97 276.604C1579.6 275.434 1580.51 274.244 1580.65 272.994C1581.27 267.224 1585.1 265.044 1590.12 263.984C1591.03 263.794 1591.91 263.414 1592.75 262.374C1590.49 262.544 1588.23 262.824 1585.96 262.874C1578.91 263.044 1571.86 263.144 1564.81 263.254C1564.05 263.264 1563.28 263.224 1562.53 263.134C1561.19 262.974 1559.62 262.774 1559.3 261.274C1558.89 259.384 1560.52 258.584 1561.94 258.074C1569.15 255.454 1576.61 253.964 1584.27 253.664C1588.4 253.504 1592.55 253.634 1596.74 253.014C1592.9 250.164 1588.47 249.904 1584.12 249.474C1581.28 249.194 1578.4 249.214 1575.63 248.434C1574.71 248.174 1573.7 247.854 1573.53 246.764C1573.3 245.334 1574.43 244.704 1575.49 244.364C1577.84 243.594 1580.25 243.024 1582.63 242.344C1584.03 241.944 1585.75 242.314 1586.84 240.454C1585.27 238.944 1583.05 238.904 1581.2 238.104C1580.14 237.644 1578.81 237.274 1578.74 236.014C1578.67 234.674 1579.98 234.244 1581.09 233.924C1582.55 233.504 1584.05 233.174 1585.51 232.754C1590.74 231.234 1591.67 230.114 1591.7 224.704C1591.73 219.564 1591.5 214.414 1591.57 209.274C1591.6 207.274 1591.16 204.024 1593.39 203.824C1596.11 203.574 1595.37 206.924 1595.77 208.764C1597.08 214.714 1597.98 220.724 1600.95 226.224C1602.79 229.634 1602.54 229.774 1598.56 231.404C1597.86 231.694 1597.07 231.804 1596.57 233.184C1602.75 238.504 1611.32 239.854 1619.4 244.694C1614.6 246.764 1611.15 245.164 1607.75 245.044C1604.43 244.924 1601.06 244.234 1596.73 245.534C1600.09 248.684 1603.54 249.674 1606.65 251.274C1608.66 252.304 1612.55 252.164 1611.96 255.154C1611.51 257.444 1607.96 256.254 1605.81 256.594C1602.52 257.114 1599.19 257.424 1594.89 257.934C1598.06 260.304 1600.82 260.974 1603.38 262.034C1607.96 263.934 1612.58 265.724 1617.09 267.754C1618.52 268.394 1620.75 269.084 1620.15 271.204C1619.64 272.994 1617.56 272.324 1616.12 272.344C1611.93 272.394 1607.73 272.214 1603.55 272.324C1601.31 272.384 1598.28 272.284 1597.73 274.854C1597.16 277.524 1600.19 278.314 1602.11 279.364C1606.24 281.624 1610.88 281.764 1615.42 282.204C1618.98 282.544 1622.54 282.834 1626.45 284.344C1624.21 287.154 1621.09 285.404 1618.62 286.834C1621.15 288.924 1623.57 290.684 1625.71 292.744C1628.64 295.554 1628.96 297.554 1627.39 300.324C1625.85 303.044 1623.82 303.994 1620.04 303.064C1616.16 302.104 1612.41 300.674 1608.59 299.494C1606.43 298.824 1604.3 297.964 1601.7 298.674C1609.84 301.454 1617.98 304.224 1626.12 307.004C1626.02 307.524 1625.92 308.044 1625.82 308.564C1620.07 309.924 1614.44 306.774 1608.53 307.714C1616.42 310.894 1624.14 314.654 1632.26 317.054C1637.88 318.714 1643.56 316.204 1648.33 312.934C1650.83 311.224 1650.86 307.964 1650.83 305.054C1650.8 302.014 1650.57 298.934 1651.68 296.014C1652.15 294.764 1652.75 293.464 1654.39 293.494C1655.72 293.524 1656.33 294.604 1656.84 295.624C1658.3 298.544 1659.01 301.714 1659.87 304.834C1660.73 307.954 1661.45 311.154 1662.7 314.114C1664.38 318.104 1663.89 321.574 1661.06 324.704C1655.74 330.594 1657.22 331.864 1664.16 333.044C1667.35 333.594 1670.36 335.004 1672.7 337.404C1674.68 339.434 1674.55 341.134 1672.01 342.414C1669.31 343.784 1666.35 344.654 1663.52 345.784C1662.46 346.204 1661.28 346.714 1661.42 348.114C1661.53 349.144 1662.52 349.624 1663.39 350.014C1667.59 351.894 1672.05 352.934 1676.45 354.144C1679.76 355.054 1683.06 355.964 1686.34 356.974C1687.2 357.234 1688.19 357.724 1687.91 358.944C1687.71 359.814 1686.84 360.064 1686.11 360.114C1683.83 360.254 1681.54 360.314 1679.26 360.334C1675.87 360.364 1672.47 360.344 1668.08 360.344C1669.74 362.654 1671.34 362.594 1672.65 362.844C1684.62 365.144 1696.63 367.284 1708.58 369.654C1711.78 370.294 1714.03 369.424 1715.98 366.824C1714.15 365.734 1712.51 366.554 1710.89 366.704C1709.38 366.854 1707.86 367.034 1706.35 367.034C1705.19 367.024 1703.94 366.664 1703.52 365.464C1702.98 363.894 1704.15 362.954 1705.34 362.314C1707.18 361.314 1709.11 360.494 1710.98 359.554C1712.46 358.814 1714.28 358.614 1715.22 357.134C1714.91 354.934 1712.01 355.594 1711.69 352.914C1718.65 350.894 1726.09 351.654 1733.1 350.364C1733.44 348.324 1732.01 348.234 1731.03 347.984C1727.53 347.074 1723.99 346.314 1720.47 345.464C1718.81 345.064 1717.14 344.644 1715.51 344.114C1714.61 343.824 1713.72 343.274 1713.67 342.184C1713.62 341.064 1714.49 340.474 1715.41 340.204C1717.78 339.494 1720.15 338.744 1722.58 338.284C1726.36 337.574 1728.17 335.184 1728.5 331.604C1728.76 328.764 1728.83 325.894 1728.79 323.044C1728.72 318.634 1729.2 314.284 1730.1 309.994C1730.51 308.034 1730.52 305.814 1732.64 304.184C1734.56 305.684 1734.53 307.874 1734.66 309.794C1735 315.154 1736.47 320.304 1737.37 325.554C1738.08 329.694 1739.74 330.834 1744.15 330.684C1746.43 330.604 1748.74 330.604 1750.99 330.274C1764.76 328.234 1777.17 333.554 1789.83 337.424C1791.53 337.944 1794.44 338.534 1794.11 340.504C1793.66 343.204 1790.66 341.974 1788.77 342.044C1784.2 342.224 1779.62 342.104 1775.05 342.144C1772.01 342.174 1769.02 342.524 1765.76 343.794C1767.1 346.094 1769.33 346.254 1771.17 346.794C1776.29 348.294 1781.47 349.594 1786.62 350.974C1786.99 351.074 1787.37 351.154 1787.72 351.294C1789.94 352.194 1793.27 352.014 1793.73 354.874C1794.19 357.674 1790.44 357.494 1788.96 359.474C1789.52 361.174 1791.32 360.874 1792.56 361.464C1793.43 361.874 1794.47 362.274 1794.52 363.314C1794.59 364.714 1793.35 365.164 1792.25 365.474C1790.97 365.844 1789.66 366.074 1788.35 366.354C1781.47 367.814 1774.57 369.174 1767.62 371.474C1775.8 374.164 1813.46 372.614 1822.66 369.144C1819.53 366.824 1816 367.134 1812.87 366.294C1810.49 365.654 1808.03 365.294 1805.64 364.654C1804.76 364.424 1803.87 363.824 1803.8 362.714C1803.73 361.594 1804.52 360.904 1805.41 360.594C1807.38 359.904 1809.39 359.304 1811.43 358.854C1813.66 358.364 1815.93 358.034 1818.19 357.744C1820.45 357.454 1822.72 357.274 1825.64 356.184C1822.41 354.354 1819.23 354.424 1816.34 353.604C1814.45 353.074 1811.31 353.594 1811.3 351.024C1811.29 348.524 1814.45 348.944 1816.31 348.274C1818.97 347.314 1821.96 347.344 1824.86 345.384C1822.8 343.444 1820.31 343.654 1818.07 343.224C1816.93 343.004 1815.62 342.764 1815.51 341.404C1815.4 340.104 1816.57 339.444 1817.62 338.984C1819.19 338.304 1820.78 337.634 1822.42 337.154C1825.93 336.124 1827.65 333.724 1828.47 330.274C1829.42 326.324 1829.29 322.334 1829.45 318.344C1829.55 315.744 1828.9 313.054 1830.09 310.514C1832.19 310.794 1831.92 312.374 1832.07 313.584C1832.81 319.444 1833.55 325.304 1834.13 331.174C1834.39 333.844 1835.31 335.574 1837.88 336.954C1841.36 338.824 1844.53 341.254 1848.3 342.634C1849.36 343.024 1850.52 343.734 1850.43 345.024C1850.33 346.424 1848.99 346.584 1847.86 346.794C1847.11 346.924 1846.35 347.014 1845.62 347.224C1844.1 347.654 1842.74 348.284 1842.53 350.134C1842.33 351.894 1843.18 353.134 1844.63 353.864C1846.66 354.894 1848.77 355.794 1850.89 356.624C1853.2 357.524 1855.57 358.244 1857.89 359.104C1858.79 359.434 1859.77 359.964 1859.82 360.984C1859.87 362.124 1858.73 362.254 1857.88 362.694C1852.97 365.194 1847.63 366.314 1842.28 367.604C1846.55 368.264 1850.85 368.324 1855.63 370.234C1852.42 372.934 1849.34 371.264 1846.26 372.464C1849.48 374.754 1854 372.994 1856.39 376.164C1855.42 378.594 1853.05 378.004 1851.45 379.044C1856.51 381.374 1862.44 380.834 1867.19 384.284C1861.61 385.154 1856.03 383.944 1849.51 384.874C1853.58 386.814 1857.28 387.074 1860.66 388.234C1862.64 388.914 1866.19 388.544 1865.86 391.204C1865.59 393.334 1862.25 392.174 1860.28 392.294C1857.05 392.494 1853.8 392.384 1850.57 392.514C1848.76 392.584 1846.86 392.544 1845 394.024C1847.82 395.964 1851.31 395.314 1853.82 397.494C1852.77 399.974 1850.29 399.574 1848.54 400.394C1846.3 401.454 1843.53 402.124 1843.77 405.284C1844 408.294 1846.65 409.264 1849.06 409.714C1853.17 410.494 1857.35 410.904 1861.51 411.354C1863.21 411.544 1864.94 411.374 1866.65 411.494C1868.49 411.624 1871.11 411.064 1871.68 413.174C1872.31 415.504 1869.41 415.734 1868 416.834C1866.59 417.944 1863.94 418.464 1864.79 420.854C1865.59 423.084 1867.8 422.384 1869.75 422.104C1875.17 421.314 1880.63 420.744 1886.23 419.304C1883.6 418.824 1880.96 418.374 1878.34 417.834C1877.45 417.654 1876.35 417.494 1876.22 416.294C1876.09 415.054 1877.19 414.804 1878.04 414.474C1878.74 414.194 1879.5 414.054 1880.24 413.864C1886.7 412.184 1887.49 411.244 1887.79 404.474C1887.92 401.614 1887.84 398.754 1888.03 395.904C1888.16 393.924 1888.1 391.794 1889.99 390.024C1891.75 391.714 1891.44 393.694 1891.52 395.504C1891.67 398.934 1891.97 402.334 1892.28 405.754C1892.65 409.844 1893.77 412.944 1897.85 414.854C1900.6 416.144 1900.53 417.364 1898.67 419.824C1898.1 420.584 1897.34 421.184 1896.75 421.934C1895.5 423.514 1896.34 424.434 1897.9 424.804C1900.86 425.504 1903.87 426.004 1906.84 426.684C1907.75 426.894 1908.76 427.384 1908.79 428.464C1908.81 429.604 1907.78 429.914 1906.85 430.214C1903.69 431.234 1900.14 431.204 1896.97 433.614C1899.51 435.944 1902.46 436.074 1905.03 437.054C1906.06 437.444 1907.45 437.724 1907.51 439.084C1907.58 440.914 1905.86 440.954 1904.66 441.244C1901.43 442.004 1897.93 441.454 1894.4 443.274C1903.83 446.664 1913.54 447.964 1922.69 452.494C1920.41 455.194 1918.05 454.114 1916.01 453.984C1912.79 453.774 1909.59 453.154 1906.37 452.854C1904.88 452.714 1902.99 452.634 1902.51 454.464C1901.99 456.444 1903.53 457.554 1905.13 458.384C1906.9 459.304 1908.8 459.334 1910.72 459.154C1913.18 458.924 1915.64 458.424 1918.1 458.424C1921.21 458.414 1922.66 455.904 1924.64 454.334C1926.1 453.164 1924.79 451.594 1923.82 450.364C1922.84 449.124 1921.22 448.414 1921.78 446.114C1922.65 442.534 1922.47 442.774 1926.1 441.994C1931.88 440.754 1937.47 442.264 1943.14 442.564C1943.86 442.604 1944.67 442.824 1944.87 443.954C1943.86 445.684 1941.9 444.874 1940.4 445.364C1939.47 445.664 1938.49 445.924 1938.21 446.944C1937.84 448.274 1938.84 449.064 1939.72 449.764C1941.28 451.014 1943.02 451.594 1945.05 451.014C1946.33 450.654 1947.63 450.264 1948.94 450.174C1951.78 449.974 1952.9 448.414 1953.11 445.744C1953.34 442.894 1953.72 440.064 1954.15 437.234C1954.42 435.444 1954.24 433.394 1956.24 432.274C1958.09 433.204 1957.67 434.914 1957.78 436.324C1958.16 441.264 1958.49 446.174 1960.98 450.684C1962.07 452.654 1961.81 452.804 1956.83 456.014C1961.28 455.784 1964.67 457.784 1968.55 456.784C1967.69 454.614 1964.41 456.144 1964.6 453.944C1964.8 451.574 1967.36 451.844 1969.13 451.444C1973.67 450.414 1974.31 449.714 1974.75 444.994C1975.03 441.964 1974.83 438.884 1975.65 435.904C1975.85 435.174 1976.07 434.364 1976.92 434.204C1978.16 433.964 1978.65 434.974 1978.86 435.854C1980.13 441.034 1981.37 446.214 1982.49 451.424C1982.99 453.724 1980.64 454.354 1978.93 455.644C1983.92 456.774 1988.64 455.444 1993.46 457.634C1989.9 461.294 1984.98 460.544 1981.14 463.274C1982.53 464.334 1984.12 463.844 1985.41 464.274C1988.56 465.314 1989.18 467.384 1986.79 469.794C1985.34 471.264 1983.44 472.284 1981.79 473.574C1979.21 475.604 1979.37 477.154 1982.37 478.534C1983.74 479.164 1985.27 479.464 1986.72 479.934C1987.61 480.224 1988.72 480.374 1988.7 481.604C1988.68 482.754 1987.64 483.124 1986.77 483.384C1981.45 485.004 1975.92 485.534 1970.43 485.994C1951.44 487.574 1932.43 488.394 1913.36 488.524C1884.59 488.724 1855.81 488.964 1827.06 489.924C1807.63 490.574 1788.18 490.134 1768.77 490.974C1746.29 491.944 1723.8 491.404 1701.34 492.204C1689.91 492.614 1678.47 492.494 1667.07 493.074C1659.29 493.464 1651.56 494.814 1643.8 495.654C1635.09 496.594 1626.37 497.314 1617.6 497.674C1604.27 498.234 1590.97 498.404 1577.63 497.694C1564.49 496.984 1551.44 495.584 1538.4 493.914C1536.62 493.684 1533.74 493.834 1533.59 491.774C1533.38 488.994 1536.51 489.364 1538.35 488.974C1553.26 485.824 1568.24 482.904 1582.6 477.614C1586.71 476.104 1590.75 474.394 1594.78 472.674C1596.17 472.084 1597.46 471.234 1598.75 470.424C1599.57 469.904 1600.32 469.154 1600.21 468.134C1600.07 466.824 1598.95 466.224 1597.82 465.994C1593.9 465.194 1589.96 464.464 1585.94 464.454C1575.84 464.434 1565.74 464.224 1555.64 464.414C1531.83 464.864 1508.07 466.414 1484.29 467.484C1470.03 468.124 1455.76 469.304 1441.46 468.934C1438.59 468.854 1435.73 468.804 1432.97 467.964C1428.1 466.484 1427.24 463.874 1430.46 460.034C1432.67 457.394 1435.33 455.204 1438.13 453.204C1450.21 444.544 1462.35 435.974 1474.38 427.234C1483.33 420.734 1491.69 413.494 1499.55 405.704C1501.04 404.234 1502.45 402.674 1503.78 401.054C1506.79 397.374 1506.8 397.314 1503.54 393.514C1497.09 385.994 1490.16 378.884 1484.4 370.784C1481.32 366.444 1478.29 362.124 1476.94 356.754C1475.37 350.504 1478.15 343.444 1484.57 339.024C1486.43 337.744 1488.12 337.754 1489.55 339.654C1490.47 340.874 1491.37 342.104 1492.22 343.364C1498.82 353.164 1505.4 362.974 1512.01 372.774C1513.05 374.324 1513.88 376.064 1515.75 377.414C1517.94 375.024 1517.91 372.084 1518.19 369.434C1519.02 361.644 1518.75 353.824 1518.29 346.024C1518.16 343.854 1517.44 341.934 1516.18 340.194C1506.12 326.254 1500.31 310.294 1494.46 294.374C1491.24 285.614 1488.34 276.734 1485.22 267.934C1483.95 264.344 1482.54 260.784 1480.26 257.674C1479.36 256.454 1478.37 255.104 1476.55 255.644C1475.09 256.084 1474.68 257.474 1474.4 258.784C1473.08 264.984 1472.84 271.234 1473.44 277.544C1474.4 287.594 1475.35 297.644 1476.13 307.704C1476.7 314.954 1475.97 322.164 1474.93 329.344C1473.36 340.164 1468.28 349.254 1460.58 356.694C1455.58 361.534 1454.55 365.994 1456.89 372.784C1460.8 384.134 1458.49 395.354 1452.79 405.844C1446.73 416.984 1437.87 425.664 1427.72 432.864C1412.2 443.874 1416.26 443.024 1397.93 441.854C1393.94 441.594 1389.93 441.704 1385.93 441.594C1385.2 441.574 1384.38 441.544 1383.97 440.204C1385.53 438.004 1388.28 437.014 1390.62 435.614C1401.28 429.254 1411.6 422.444 1420.98 414.274C1430.04 406.384 1437.37 397.274 1440.8 385.494C1441.12 384.404 1441.34 383.284 1441.5 382.164C1441.54 381.864 1441.22 381.514 1440.93 380.884C1438.92 381.724 1437.83 383.604 1436.35 384.974C1434.39 386.784 1432.49 388.654 1430.46 390.374C1429.28 391.374 1427.82 392.124 1426.28 391.144C1424.79 390.194 1424.63 388.554 1424.92 387.054C1425.53 383.884 1426.19 380.694 1427.13 377.604C1430.52 366.474 1434.71 355.634 1438.84 344.764C1443.18 333.364 1447.39 321.924 1450.15 310.004C1451.36 304.794 1452.14 299.554 1452.05 294.164C1451.92 285.594 1452.11 277.024 1452.97 268.474C1453.18 266.344 1453.98 263.264 1451.49 262.314C1449.32 261.484 1447.99 264.224 1446.76 265.774C1436.21 279.064 1424.99 291.774 1413.49 304.234C1410.76 307.194 1407.84 309.894 1404.73 312.404C1403.64 313.284 1402.36 315.014 1400.86 313.564C1399.52 312.274 1400.78 310.674 1401.52 309.414C1403.06 306.784 1404.66 304.184 1406.42 301.694C1415.24 289.264 1424.18 276.914 1432.94 264.434C1435.89 260.234 1438.5 255.784 1441.17 251.384C1442.69 248.874 1443.34 246.084 1442.92 243.154C1442.59 240.824 1441.29 240.124 1439.34 241.414C1437.61 242.554 1436.08 244.034 1434.62 245.514C1428.98 251.254 1424.65 258.004 1420.11 264.604C1397.28 297.784 1372.45 329.344 1344.1 358.044C1336.44 365.794 1327.83 372.424 1319.4 379.264C1318.39 380.084 1317.4 381.094 1315.48 380.524C1314.91 378.554 1316.31 377.134 1317.3 375.634C1335.45 348.304 1355.07 322.074 1375.55 296.464C1384.48 285.304 1393.35 274.094 1401.62 262.434C1403.49 259.804 1405.54 257.254 1406.47 254.064C1406.85 252.734 1407.04 251.374 1405.94 250.314C1404.64 249.054 1403.13 249.444 1401.69 250.104C1399.58 251.074 1397.94 252.684 1396.26 254.234C1384.67 264.914 1376.58 277.884 1371.05 292.564C1369.57 296.484 1367.86 300.314 1366.12 304.124C1361.46 314.344 1353.75 321.294 1343.33 325.394C1337.13 327.834 1331.02 330.514 1324.86 333.084C1307.07 340.514 1297.31 354.654 1292.05 372.494C1290.05 379.264 1288.98 386.244 1287.76 393.184C1287.07 397.124 1286.37 401.084 1284.65 404.744C1282.19 409.974 1278.3 411.564 1272.93 409.424C1268.28 407.574 1264.18 404.804 1260.56 401.334C1257.81 398.694 1255.13 395.974 1252.31 393.414C1248.61 390.064 1244.26 389.304 1239.51 390.604C1235.62 391.674 1232.03 393.474 1228.62 395.574C1225.78 397.324 1225.55 398.264 1227.5 401.124C1230.29 405.214 1233.3 409.154 1236.27 413.124C1248.42 429.384 1263.34 442.444 1281.08 452.364C1295.25 460.284 1308.25 469.974 1321.11 479.844C1331.24 487.624 1341.4 495.354 1352.1 502.334C1371.45 514.944 1392.47 522.784 1415.63 524.494C1417.41 524.624 1419.43 524.274 1421.52 526.654C1417.19 527.554 1413.49 527.114 1409.85 526.924C1390.07 525.884 1370.3 524.764 1350.52 523.674C1332.65 522.684 1314.78 521.624 1296.9 520.694C1286.44 520.154 1275.96 519.884 1265.49 519.534C1241.88 518.744 1218.26 518.224 1194.64 517.744C1160.91 517.064 1127.19 516.714 1093.47 517.274C1069.67 517.674 1045.84 517.854 1022.07 519.444C1015.43 519.884 1008.81 520.794 1002.19 521.554C1000.96 521.694 999.45 521.504 998.75 523.444C1000.94 525.054 1003.65 525.194 1006.18 525.684C1024.14 529.174 1042.11 532.584 1059.41 538.764C1062.83 539.984 1066.19 541.324 1069.23 543.344C1070.99 544.514 1072.92 545.734 1072.59 548.214C1072.26 550.654 1070.1 551.474 1068.1 552.114C1062.61 553.854 1056.89 554.514 1051.19 554.594C1028.9 554.894 1006.61 555.244 984.33 553.884C973.5 553.224 962.63 553.344 951.78 552.684C932.01 551.474 912.2 550.964 892.42 549.914C865.99 548.514 839.56 546.914 813.14 545.354C794.13 544.234 775.12 543.054 756.11 541.874C732.92 540.434 709.71 539.244 686.56 537.424C653.5 534.814 620.59 530.864 588.3 522.964C583.68 521.834 579.17 520.274 574.66 518.724C573.07 518.184 571.51 517.294 570.22 516.214C568.54 514.824 568.83 513.154 570.76 512.084C572.28 511.244 574 511.054 575.7 510.774C583.28 509.534 590.9 509.904 598.52 509.944C611.1 510.014 623.68 510.104 636.07 507.364C639.98 506.504 643.89 505.614 647.5 503.814C649.19 502.974 651.26 502.204 651.2 499.924C651.13 497.344 648.82 496.724 646.86 496.004C645.61 495.544 644.31 495.194 643 494.964C636.04 493.774 629.04 493.114 621.98 493.094C619.91 493.084 618.36 493.314 618.01 495.994C617.57 499.374 614.47 500.254 611.85 501.274C604.34 504.204 596.39 505.364 588.5 506.634C565.37 510.364 542.03 512.614 518.83 515.844C503.74 517.944 488.62 519.964 473.82 523.694C471.33 524.324 467.18 524.374 467.19 526.994C467.2 530.144 471.46 530.054 474.03 530.634C485.19 533.144 496.54 534.544 507.88 536.004C517.7 537.274 527.56 538.344 537.25 540.424C539.21 540.844 542.2 540.844 542.27 543.294C542.35 546.224 539.12 546.114 537.05 546.554C527.71 548.514 518.19 549.194 508.71 550.004C452.42 554.804 396.01 554.314 339.63 553.174C312.99 552.644 286.35 551.194 259.75 549.264C240.57 547.874 221.39 546.534 202.12 546.434C183.46 546.334 164.78 545.894 146.13 545.144C128.79 544.444 111.45 544.754 94.13 544.084C71.87 543.214 49.5601 542.994 27.4501 539.794C22.5501 539.084 17.7001 538.084 12.8301 537.164C11.7101 536.954 10.6 536.614 9.54004 536.204C8.15004 535.664 6.31003 535.254 6.41003 533.374C6.49003 531.834 8.15002 531.594 9.40002 531.124C11.18 530.454 13.03 529.874 14.64 528.894C18.89 526.314 19.04 523.634 15.1 520.514C12.84 518.724 10.6401 516.924 9.08008 514.484C5.98008 509.654 7.11997 507.114 12.72 506.234C14.16 506.004 15.8 506.574 16.99 505.224C14.42 502.124 11.46 500.744 0 497.304C0.03 496.674 0.0300293 495.914 0.0300293 495.154ZM1270.39 471.734C1269.22 468.744 1267.27 467.454 1265.47 466.114C1261.8 463.384 1258.09 460.704 1254.28 458.174C1241.09 449.444 1227.77 440.914 1214.67 432.054C1205.82 426.074 1197.21 419.734 1191.82 410.074C1190.91 408.434 1189.51 407.054 1188.21 405.664C1179.86 396.754 1170.91 388.474 1161.48 380.724C1140.39 363.384 1116.74 350.444 1091.54 340.164C1072.64 332.454 1053.19 326.354 1033.73 320.264C1020.08 315.994 1006.61 311.264 993.95 304.464C982.5 298.314 973.73 289.624 968.29 277.754C963.43 267.124 957.09 257.384 950.21 248.004C934.32 226.324 916.59 206.104 899.99 184.984C896.94 181.104 893.58 177.384 889.92 174.084C871.53 157.484 853.46 140.564 835.85 123.134C824.75 112.144 813.53 101.264 801.2 91.624C797.74 88.914 794.16 86.374 790.07 84.694C784.81 82.534 782.52 83.964 782.21 89.574C781.93 94.574 782.69 99.454 784.15 104.234C788.32 117.844 794.55 130.404 803.16 141.764C808.34 148.604 813.58 155.464 815.99 163.874C817.96 170.734 815.53 174.544 808.56 175.814C804.21 176.604 799.83 176.314 795.47 175.734C789.98 174.994 784.45 174.714 778.93 175.164C774.25 175.544 772.63 177.854 773.39 182.504C773.79 184.974 774.74 187.294 776.04 189.404C778.34 193.134 780.58 196.914 783.19 200.424C794.85 216.094 808.52 229.864 823.49 242.364C829.35 247.254 835.35 251.974 842.11 255.574C850.71 260.154 853.31 259.244 857.48 250.554C859.73 245.864 862.08 245.244 866.5 248.274C869.81 250.544 872.8 253.234 875.42 256.274C889.01 272.004 903.8 286.594 918.32 301.434C921.52 304.704 924.47 308.214 927 312.034C929.13 315.254 931.39 318.744 928.36 322.484C925.41 326.114 921.51 324.954 917.81 323.704C915.11 322.794 912.51 321.504 909.75 320.814C906.54 320.004 905.2 321.104 904.67 324.424C904.52 325.354 904.51 326.324 904.52 327.274C904.62 344.414 903.82 361.574 905.85 378.664C906.66 385.484 907.55 392.294 910.21 398.694C914.18 408.264 919.11 409.224 926.38 401.864C931.5 396.674 935.35 390.524 939.22 384.394C945.52 374.404 951.5 364.204 958.45 354.634C963.16 348.154 967.99 341.734 975.03 337.494C982.51 332.984 989.55 333.814 995.88 339.874C999.23 343.074 1001.6 346.994 1003.98 350.904C1010.72 361.974 1016.98 373.314 1022.85 384.874C1028.97 396.934 1035.05 409.024 1041.8 420.754C1042.65 422.234 1043.54 423.724 1044.61 425.054C1045.64 426.344 1046.6 428.264 1048.59 427.774C1050.64 427.264 1050.5 425.164 1050.65 423.494C1050.79 421.784 1050.79 420.064 1050.8 418.354C1050.93 405.334 1048.29 392.594 1046.69 379.764C1045.95 373.884 1045.61 367.964 1046.23 362.094C1046.83 356.394 1050.32 354.604 1055.52 356.964C1058.14 358.154 1060.35 359.974 1062.54 361.844C1069.67 367.924 1075.79 374.974 1081.96 381.974C1098.1 400.264 1114.23 418.554 1132.77 434.524C1147.91 447.564 1164.57 457.494 1184.8 460.194C1190.27 460.924 1195.77 461.524 1201.22 462.424C1219.26 465.414 1237.27 468.584 1255.31 471.554C1260.09 472.334 1264.99 472.864 1270.39 471.734ZM502.54 258.994C505.41 259.854 508.45 259.284 511.4 259.614C515.54 260.074 518.61 258.464 521.57 255.614C527.87 249.534 534.56 243.844 540.94 237.844C550.93 228.444 560.91 219.014 569.61 208.354C576.79 199.554 582.83 190.034 585 178.714C587.33 166.574 592.78 156.144 600.48 146.644C604.09 142.194 607.96 138.014 611.97 133.934C619.77 125.984 628.88 119.694 638.08 113.584C649.65 105.904 657.75 95.774 662.1 82.584C663.47 78.424 665.08 74.344 666.67 70.264C669.09 64.054 671.37 57.764 675.19 52.214C680.41 44.624 686.4 44.354 692.28 51.534C695.06 54.934 697.3 58.684 699.08 62.734C703.59 72.974 705.55 83.834 706.88 94.824C708.85 111.074 709.27 127.494 712.2 143.654C712.75 146.664 712.5 149.724 712.18 152.774C710.53 168.504 704.26 182.104 693.25 193.434C690.5 196.264 689.38 199.394 689.61 203.234C689.77 205.934 690.41 208.484 691.17 211.054C692.3 214.884 693.44 218.724 694.37 222.614C696.07 229.764 694.4 236.164 689.88 241.924C684.8 248.404 678.78 253.954 672.72 259.474C663.71 267.694 654.34 275.514 646 284.444C644.51 286.034 641.75 287.784 643.05 290.064C644.44 292.504 647.27 290.634 649.29 290.074C658.7 287.504 667.58 283.554 676.33 279.314C690.39 272.504 704.41 265.604 718.46 258.774C723.6 256.274 728.84 253.974 734.35 252.384C736.33 251.814 738.62 250.894 740.14 253.024C741.63 255.124 740.12 257.084 738.97 258.774C736.83 261.924 734.57 264.994 732.2 267.974C725.67 276.164 718.38 283.734 712.31 292.304C710.31 295.124 708.48 298.034 707.41 301.304C705.32 307.654 707.18 311.624 713.33 314.074C716.34 315.274 719.44 316.184 722.68 316.634C727.77 317.334 732.91 317.884 737.91 318.994C745.02 320.564 747.34 324.344 746.29 331.494C745.73 335.294 744.66 338.934 743.19 342.464C736.08 359.574 726.97 375.654 718.16 391.904C712.35 402.614 706.1 413.114 701.54 424.464C700.76 426.394 700.17 428.434 699.81 430.474C699.47 432.414 700.67 433.274 702.56 433.084C704.32 432.904 705.75 431.884 707.24 431.054C714.91 426.794 722.76 422.914 730.87 419.574C734.22 418.194 737.63 416.864 741.3 416.734C745 416.604 746.5 418.734 745.41 422.284C744.73 424.504 743.4 426.394 742.03 428.224C737.02 434.944 731.92 441.594 726.93 448.334C722.17 454.774 717.66 461.394 713.58 468.284C712.4 470.284 710.67 472.264 711.28 475.094C712.11 475.004 712.73 475.084 713.19 474.844C714.36 474.224 715.52 473.544 716.58 472.744C725.28 466.164 733.21 458.744 739.95 450.164C757.88 427.334 769.46 401.384 777.33 373.624C783.42 352.144 785.84 330.264 783.99 308.014C782.26 287.244 777.59 267.024 771.98 246.994C766.84 228.654 760.94 210.524 756.28 192.044C752.72 177.904 751.22 163.504 751.67 149.004C751.96 139.674 752.4 130.344 752.16 121.014C751.84 108.454 748.8 96.514 742.81 85.414C739.55 79.374 736 73.494 731.94 67.954C723.28 56.114 714.6 44.294 706.51 32.034C700.43 22.824 695.95 22.554 687.65 30.134C683.28 34.124 679.54 38.704 675.61 43.124C655.23 66.054 635.13 89.224 616.08 113.264C604.6 127.754 593.15 142.334 584.32 158.634C577.1 171.974 568.14 183.994 558.63 195.664C541.77 216.364 523.67 235.944 505 255.004C504 256.034 502.48 256.794 502.54 258.994ZM1277.5 123.654C1275.56 124.874 1275.32 126.494 1274.7 127.834C1270.93 135.954 1267.39 144.184 1263.47 152.234C1252.06 175.714 1236.71 196.464 1219.78 216.244C1203.81 234.924 1188.53 254.194 1175.3 274.974C1168.73 285.294 1162.91 295.974 1159.15 307.684C1156.77 315.124 1154.44 322.574 1152.04 330.014C1148.62 340.624 1148 338.824 1157.86 343.084C1174.38 350.234 1190.34 358.254 1203.21 371.244C1205.27 373.324 1207.02 373.024 1209.22 371.544C1222.34 362.694 1235.33 353.684 1246.51 342.354C1254.3 334.474 1260.79 325.504 1267.83 316.994C1275.23 308.064 1281.88 298.424 1291.82 291.904C1293.06 291.094 1294.01 289.794 1294.97 288.624C1295.56 287.914 1296.2 286.984 1295.66 286.024C1294.96 284.764 1293.69 285.064 1292.61 285.364C1288.93 286.374 1285.37 287.724 1281.95 289.444C1271.36 294.774 1261.7 301.594 1252.06 308.424C1240.87 316.364 1229.79 324.444 1218.59 332.374C1216.11 334.124 1213.39 335.534 1210.72 337.004C1209.38 337.744 1207.81 338.404 1206.44 337.264C1204.81 335.914 1205.38 334.094 1206.05 332.514C1207.41 329.364 1208.79 326.224 1210.41 323.204C1219.82 305.714 1230.98 289.334 1242.78 273.404C1248.17 266.134 1252.51 258.414 1255.51 249.894C1260.38 236.084 1267.5 223.614 1277.41 212.724C1284.08 205.404 1290.42 197.784 1296.83 190.234C1298.05 188.804 1298.97 187.104 1299.92 185.454C1300.4 184.624 1300.58 183.614 1299.75 182.824C1298.97 182.084 1298 182.154 1297.07 182.464C1294.43 183.364 1292.56 185.314 1290.91 187.404C1287.83 191.284 1284.95 195.324 1281.9 199.224C1278.25 203.884 1274.41 208.344 1269.44 211.714C1265.59 214.324 1261.3 215.834 1256.9 217.124C1255.63 217.494 1254.21 217.824 1253.12 216.734C1251.74 215.354 1252.66 213.864 1253.27 212.514C1254.13 210.604 1255.16 208.774 1256.13 206.924C1264.06 191.924 1270.9 176.424 1277.57 160.824C1282.88 148.484 1281.69 136.374 1277.5 123.654ZM786.34 220.484C786.49 222.724 787.58 223.794 788.45 224.934C791.69 229.194 794.59 233.674 797.12 238.364C804.57 252.214 809.37 266.824 807.36 282.754C804.87 302.414 803.33 322.134 802.13 341.904C801.71 348.794 802.38 355.604 803.14 362.414C803.27 363.544 803.55 364.764 804.97 364.964C806.07 365.114 806.71 364.274 807.17 363.444C808.28 361.454 809.41 359.454 810.34 357.374C812.06 353.554 813.65 349.674 815.28 345.814C816.39 343.164 817.72 340.634 819.53 338.404C823.06 334.064 826.99 333.594 831.48 336.984C833.93 338.834 835.9 341.164 837.62 343.714C839.43 346.404 841.19 349.114 843.02 351.784C850.27 362.374 858.51 372.074 868.81 379.864C872.16 382.404 875.69 384.704 879.78 385.874C884.24 387.154 886.41 386.274 888.93 382.354C890.38 380.114 891.64 377.754 893.11 375.534C900.01 365.164 900.49 354.224 896.18 342.794C891.56 330.524 883.99 320.484 873.54 312.564C867.9 308.294 861.9 304.584 855.76 301.144C845.07 295.154 836.52 287.114 829.65 276.914C817.94 259.544 805.9 242.384 792.26 226.424C790.58 224.464 789.16 222.224 786.34 220.484ZM1107.21 277.604C1107.87 282.474 1105.75 286.184 1103.79 289.734C1100.21 296.234 1096.14 302.464 1092.48 308.924C1090.94 311.654 1086.87 313.994 1088.2 317.014C1089.4 319.724 1093.81 319.674 1096.84 320.724C1101.28 322.254 1101.58 322.034 1103.94 317.714C1104.85 316.044 1105.67 314.324 1106.56 312.634C1114.19 298.144 1121.82 283.654 1129.47 269.174C1137.5 253.984 1147.82 240.754 1161.95 230.664C1165.65 228.024 1169.12 224.954 1172.25 221.654C1176.34 217.344 1175.15 214.144 1169.36 213.014C1166.51 212.454 1163.63 212.614 1160.93 213.744C1158.31 214.854 1155.67 216.004 1153.23 217.464C1146.54 221.484 1139.98 225.714 1133.3 229.764C1131.76 230.694 1129.69 232.574 1128.22 230.894C1126.59 229.044 1129.02 227.504 1130.22 226.244C1136.39 219.754 1142.76 213.464 1149.65 207.724C1152.88 205.034 1155.96 202.204 1158.73 199.044C1160.88 196.594 1162.73 193.904 1163.51 190.684C1164.4 187.024 1162.7 185.104 1158.94 185.704C1156.91 186.024 1154.89 186.794 1153 187.664C1127.47 199.334 1106.49 216.564 1090.62 239.724C1080.83 254.014 1071.62 268.714 1062.15 283.224C1058.72 288.484 1055.22 293.714 1051.85 299.014C1049.44 302.804 1049.68 303.484 1053.97 305.174C1059.28 307.274 1064.72 309.064 1069.97 311.304C1073.28 312.714 1075.56 312.014 1078.09 309.604C1087.06 301.034 1095.63 292.134 1102.59 281.794C1103.62 280.314 1104.29 278.354 1107.21 277.604ZM685.9 133.904C685.9 130.284 686.07 126.664 685.85 123.054C685.65 119.624 684.87 116.244 682.97 113.284C680.35 109.204 677.34 108.524 673.34 111.224C671.62 112.384 670.07 113.854 668.63 115.354C658.08 126.344 647.39 137.214 637.11 148.454C626.7 159.834 616.26 171.204 607.11 183.664C605.08 186.424 603.07 189.214 601.3 192.144C597.39 198.574 598.44 201.024 605.84 203.084C608.04 203.694 610.31 204.054 612.5 204.714C617.86 206.324 619.1 209.074 616.89 214.214C615.37 217.754 612.88 220.674 610.6 223.724C604.55 231.804 597.71 239.274 592.05 247.654C590.66 249.704 589.2 251.744 588.48 254.134C587.65 256.894 588.66 258.254 591.5 258.044C594.76 257.804 597.8 256.654 600.75 255.284C609.32 251.294 616.65 245.534 623.5 239.154C642.16 221.794 657.86 201.994 671.6 180.574C680.75 166.334 686.85 151.184 685.9 133.904ZM528.81 394.254C532.12 394.324 535.18 393.344 538.25 392.244C544.61 389.974 549.99 385.994 555.63 382.464C567.56 374.994 579.75 367.884 590.37 358.494C593.12 356.064 595.39 353.314 597.2 350.144C598.46 347.944 599.02 346.054 596.16 344.464C592.74 342.564 592.08 339.174 592.2 335.584C592.28 333.084 593.08 330.724 593.86 328.374C594.69 325.844 595.7 323.354 596.31 320.774C597.41 316.114 595.76 314.194 590.96 314.874C587.59 315.354 584.29 316.384 581.02 317.404C576.3 318.874 571.7 320.764 566.94 322.114C560.02 324.084 553.06 326.604 545.79 323.364C544.64 322.854 543.47 323.124 542.65 324.044C539.11 328.024 535.58 332.014 532.15 336.084C530.91 337.544 531.29 338.814 533.06 339.744C535.92 341.244 538.72 342.864 541.55 344.434C542.54 344.984 543.6 345.434 544.1 346.584C545.6 350.004 542.92 356.694 539.28 357.984C532.34 360.424 525.97 363.594 521.54 369.804C520.48 371.294 518.95 372.104 517.1 370.824C514.44 368.984 512.89 370.464 511.62 372.684C511.15 373.504 510.83 374.424 510.3 375.204C509.64 376.194 508.7 377.094 507.49 376.134C503.3 372.804 500.82 376.634 498.2 378.574C495.83 380.334 496.16 382.454 498.8 384.084C502.85 386.584 507.23 388.484 511.69 390.174C517.21 392.274 522.84 393.974 528.81 394.254ZM499.86 331.294C504.06 334.164 508.36 334.824 512.52 335.804C516.2 336.664 519.13 335.684 521.64 332.684C524.7 329.044 527.96 325.554 531.39 322.254C539.28 314.664 545.76 306.284 550.16 296.034C553.97 287.154 559.36 278.944 563.99 270.404C565.03 268.484 566.39 266.584 566.22 264.104C557.11 265.994 524.55 293.574 518.43 304.414C519.36 305.744 520.83 305.214 522.07 305.444C524.68 305.944 527.34 306.294 529.91 306.944C531.55 307.364 533.56 308.134 533.23 310.224C532.92 312.174 531.06 314.014 529.27 313.724C523.1 312.694 517.16 315.234 511.07 314.464C509.55 314.274 507.97 313.924 506.72 315.114C504.31 317.404 501.66 319.514 499.77 322.624C505.68 324.844 511.85 324.304 517.85 327.974C511.67 330.784 505.8 329.294 499.86 331.294ZM400.26 313.144C402.76 313.154 404.62 312.794 406.44 312.164C419.92 307.504 432.08 300.544 442.83 291.164C443.96 290.174 444.97 288.964 445.75 287.684C447.35 285.044 446.78 283.614 443.83 282.434C441.09 281.344 438.2 281.304 435.38 281.754C432.19 282.264 429.06 283.164 425.9 283.834C421.24 284.824 416.63 285.944 411.92 283.774C409.63 282.714 407.43 284.064 405.44 285.144C401.38 287.344 401.31 289.904 405.22 292.264C407.17 293.444 409.39 294.184 411.01 295.864C413.73 298.684 413.42 301.414 410.01 303.294C408.19 304.304 406.12 304.844 404.21 305.704C401.78 306.794 399.29 307.864 397.56 310.014C396.43 311.424 396.82 312.494 398.57 312.944C399.3 313.144 400.08 313.124 400.26 313.144ZM197.58 372.094C199.29 373.394 201.44 373.444 203.42 373.984C209.46 375.614 215.65 376.754 221.26 379.744C224.22 381.324 225.79 383.424 225.33 387.064C224.73 391.884 226.01 393.134 230.85 393.174C232.17 393.184 233.53 393.114 234.81 392.804C241.83 391.094 248.78 389.124 255.4 386.204C258.08 385.024 262.11 384.194 262 380.774C261.88 376.944 257.65 376.504 254.65 375.664C246.04 373.244 237.12 372.404 228.37 370.684C218.64 368.774 209.07 370.574 199.43 370.924C198.71 370.964 197.88 371.064 197.58 372.094ZM331.15 360.564C333.85 364.344 335.93 366.824 337.52 369.594C339.16 372.454 338.11 373.774 334.78 373.564C334.22 373.524 333.66 373.334 333.1 373.284C326.7 372.694 319.02 377.894 317.32 383.964C316.51 386.854 317.48 388.394 320.41 388.644C322.71 388.844 324.93 388.354 327.13 387.694C337.89 384.464 348.27 380.294 358.14 374.914C360.81 373.454 363.45 371.914 365.65 369.794C369.06 366.504 368.54 363.794 364.23 362.054C363.36 361.704 362.42 361.464 361.49 361.284C351.74 359.384 341.97 360.384 331.15 360.564ZM279.89 346.404C281.99 347.624 283.87 348.274 285.11 349.544C287.4 351.874 289.66 351.754 292.33 350.524C296.32 348.694 300.43 347.184 304.79 346.484C306.57 346.194 308.17 345.734 308.54 343.624C308.92 341.444 308.73 339.374 306.84 337.944C305.64 337.034 304.31 336.194 302.91 335.654C299.01 334.154 295 332.924 291.1 331.394C284.12 328.644 277.25 330.134 270.37 331.764C269.38 332.004 267.98 332.164 268.24 334.194C270.13 335.134 272.29 335.684 274.54 335.954C279.45 336.544 284.38 336.974 289.26 337.734C291.21 338.034 294.48 337.344 294.78 339.504C295.17 342.314 291.66 342.024 289.76 342.874C286.75 344.244 283.18 344.214 279.89 346.404ZM236.81 410.664C231.73 410.664 227.19 411.674 224.2 413.384C222.08 414.594 220.62 416.134 220.9 418.804C221.38 423.324 229.25 430.764 233.85 431.014C235.19 431.084 236.59 431.044 237.67 430.224C241.79 427.114 245.44 423.504 247.49 418.704C248.94 415.314 247.66 413.004 244.08 411.574C241.74 410.644 239.26 410.724 236.81 410.664ZM1651.52 340.124C1648.78 337.484 1645.53 337.094 1642.5 336.164C1640.72 335.624 1638.54 335.194 1638.53 332.764C1638.52 330.754 1640.36 330.054 1641.87 329.264C1642.21 329.084 1642.6 329.024 1642.92 328.824C1644.29 327.994 1646.87 328.144 1646.6 325.954C1646.32 323.714 1643.76 323.814 1642.03 323.224C1641.34 322.984 1640.46 322.874 1639.79 323.074C1633.46 324.974 1627.33 323.114 1621.17 322.154C1618.33 321.714 1615.5 321.374 1612.67 322.024C1611.59 322.274 1610.29 322.494 1609.99 323.814C1609.7 325.114 1610.73 325.884 1611.59 326.614C1612.31 327.234 1613.08 327.804 1613.89 328.294C1623.94 334.264 1634.59 338.734 1646.08 341.084C1647.7 341.424 1649.42 342.004 1651.52 340.124ZM1706.79 371.944C1699.02 371.804 1691.3 371.274 1683.61 372.334C1681.56 372.614 1678.24 372.324 1678 375.054C1677.79 377.504 1680.82 378.364 1682.82 379.284C1693.26 384.074 1704.29 387.004 1715.51 389.244C1717.17 389.574 1719.19 390.024 1720.13 388.144C1721.27 385.894 1719.21 384.744 1717.85 383.504C1717.15 382.874 1716.31 382.384 1715.51 381.874C1712.45 379.924 1709.09 379.714 1705.6 380.084C1704.68 380.184 1703.61 380.254 1703.12 379.184C1702.65 378.174 1703.35 377.404 1703.83 376.594C1704.66 375.194 1706.71 374.664 1706.79 371.944ZM1821.31 379.344C1816 378.474 1810.74 377.254 1805.42 377.754C1795.59 378.684 1785.73 379.504 1776 381.294C1773.95 381.674 1771.88 382.114 1770.1 383.294C1768.85 384.124 1768.84 385.154 1770.01 386.024C1770.76 386.574 1771.67 386.974 1772.56 387.264C1779.44 389.544 1786.52 390.914 1793.67 391.984C1794.96 392.174 1796.33 392.024 1797.64 391.884C1799.1 391.724 1800.4 390.924 1800.17 389.364C1799.48 384.514 1803.03 383.594 1806.33 382.724C1811.28 381.404 1816.31 380.454 1821.31 379.344ZM223.71 466.484C221.35 466.614 218.68 466.654 216.05 466.924C213.22 467.214 210.4 467.674 207.76 468.814C205.83 469.644 204.62 471.004 205.46 473.294C207 477.464 215.05 481.384 219.29 479.784C224.61 477.774 229.82 475.464 235.06 473.254C236.24 472.754 237.86 472.504 238 470.924C238.17 469.074 236.54 468.424 235.19 467.774C231.63 466.024 227.77 466.634 223.71 466.484ZM127.16 472.314C130.92 472.244 135.41 473.604 138.96 472.094C145.23 469.434 150.56 464.944 154.94 459.584C156.86 457.234 156.37 455.864 153.36 455.184C145.74 453.454 137.88 454.304 130.18 453.304C129.18 453.174 128.27 453.744 127.97 454.734C127.64 455.804 128.36 456.504 129.24 456.984C131.05 457.984 133.43 458.684 133.64 461.024C133.88 463.674 135.29 464.054 137.4 464.004C138.34 463.984 139.44 464.094 139.79 465.114C140.26 466.494 139.15 467.244 138.14 467.694C134.51 469.294 130.83 470.774 127.16 472.314ZM312.86 318.184C299.31 308.474 278.65 306.864 268.28 314.044C269.79 315.154 271.51 315.204 273.18 315.474C278.25 316.304 283.33 317.194 288.21 318.834C296.16 321.494 303.86 319.504 312.86 318.184ZM522.08 200.524C517.95 200.384 509.93 208.654 510.15 212.814C510.4 217.394 516.48 220.664 520.3 218.084C523.77 215.744 526.62 212.654 529.16 209.314C529.74 208.544 530.11 207.654 529.91 206.664C529.56 204.964 523.95 200.584 522.08 200.524ZM1801.62 439.264C1798.41 439.354 1795.13 438.884 1792.01 439.984C1790.01 440.684 1787.9 441.624 1787.95 444.154C1788 446.394 1789.91 447.294 1791.78 447.834C1800.09 450.244 1807.92 448.604 1815.45 444.804C1816.31 444.374 1817.14 443.724 1817.05 442.664C1816.94 441.264 1815.71 440.944 1814.62 440.664C1810.36 439.574 1806.02 439.174 1801.62 439.264ZM1791.38 416.124C1796.14 416.174 1801.57 412.934 1803.28 409.764C1804.06 408.324 1803.71 407.274 1802.49 406.334C1799.13 403.724 1786.05 402.914 1782.65 405.094C1781.16 406.054 1780.37 407.444 1781.47 408.894C1784.25 412.554 1787.52 415.634 1791.38 416.124ZM1761.45 354.924C1761.43 354.544 1761.4 354.164 1761.38 353.774C1760.1 353.534 1758.81 353.294 1757.53 353.044C1748.39 351.274 1739.9 354.044 1731.45 356.874C1729.84 357.414 1728.12 358.354 1728.56 360.504C1728.95 362.394 1730.82 362.174 1732.25 362.514C1735.38 363.264 1738.51 364.004 1741.62 364.824C1746.16 366.024 1746.62 365.924 1750.9 362.214C1747.35 361.024 1743.35 361.314 1739.85 358.644C1743.34 355.824 1747.05 356.874 1750.44 356.584C1754.17 356.264 1757.85 355.854 1761.45 354.924ZM1669.83 394.114C1670.12 396.244 1671.37 396.404 1672.4 396.724C1678.21 398.514 1684.12 399.834 1690.22 400.104C1691.72 400.164 1693.25 400.084 1694.74 399.894C1695.8 399.754 1696.36 398.924 1696.31 397.864C1696.15 394.604 1689.63 388.684 1686.27 389.134C1680.48 389.914 1675.11 392.124 1669.83 394.114ZM1546.74 288.884C1546.4 289.204 1546.06 289.534 1545.73 289.854C1549.99 295.104 1554.23 300.384 1558.52 305.604C1559.7 307.044 1561.42 307.354 1563.18 307.164C1565.44 306.924 1567.72 306.724 1569.93 306.254C1572.61 305.684 1572.9 304.434 1570.91 302.374C1570.13 301.564 1569.22 300.844 1568.28 300.224C1561.46 295.764 1554.22 292.104 1546.74 288.884ZM1543.97 270.344C1542.58 270.404 1536.87 273.504 1536.08 274.654C1535.87 274.954 1535.67 275.304 1535.61 275.654C1535.3 277.614 1540.38 283.364 1542.49 283.084C1546.05 282.604 1549.63 281.894 1552.71 279.864C1553.91 279.074 1554.48 277.934 1553.84 276.434C1552.87 274.124 1546.59 270.234 1543.97 270.344ZM423.1 377.254C423.1 377.274 423.1 377.304 423.1 377.324C421.21 377.414 419.31 377.384 417.45 377.634C413.17 378.204 409.59 380.204 406.64 383.324C405.98 384.014 405.44 384.894 405.81 385.874C406.32 387.184 407.55 387.264 408.68 387.024C415.33 385.604 421.97 384.154 428.6 382.654C429.87 382.364 431.44 381.984 431.23 380.274C431.03 378.664 429.81 377.524 428.2 377.314C426.52 377.084 424.8 377.254 423.1 377.254ZM1873.56 437.904C1877.42 436.564 1880.36 434.554 1883.89 431.044C1875.35 431.604 1868.01 430.564 1860.55 432.644C1865.05 439.174 1874.18 443.284 1879.91 441.774C1878.09 440.474 1875.36 440.894 1873.56 437.904ZM505.32 270.614C505.16 270.224 504.99 269.834 504.83 269.444C499.92 270.744 495.06 272.244 490.41 274.334C488.88 275.024 486.87 276.004 488.6 278.094C490.98 280.964 489.46 282.914 487.57 285.024C486.87 285.804 485.7 286.374 486.06 288.444C492.66 282.324 498.99 276.474 505.32 270.614ZM1647.49 360.944C1645.27 359.974 1643.66 360.614 1642.18 361.474C1638.66 363.514 1635.7 362.614 1632.83 360.124C1631.36 358.854 1629.94 357.174 1627.24 357.514C1627.73 361.164 1630.29 362.944 1632.6 364.724C1639.24 369.834 1643.22 368.824 1647.49 360.944ZM34.34 500.114C31.91 500.144 30.2901 500.634 28.8301 501.584C28.0101 502.114 27.25 502.824 27.34 503.844C27.44 504.954 28.46 505.304 29.39 505.494C32.73 506.184 36.0801 506.894 39.4401 507.454C40.9401 507.704 42.47 507.514 43.75 506.454C45.23 505.234 45.24 503.444 43.47 502.914C40.22 501.954 37.12 500.394 34.34 500.114ZM360.62 389.024C358.12 387.234 356.07 386.014 353.97 387.974C350.4 391.324 347.46 395.164 346.57 400.344C351.42 397.114 356.07 393.734 360.62 389.024ZM1557.54 347.424C1564.03 349.724 1570.44 352.394 1578.26 349.914C1573.68 347.774 1564.2 346.564 1557.54 347.424ZM1969.75 462.524C1965.2 459.854 1961.02 461.604 1956.82 463.364C1961.28 465.854 1965.5 463.904 1969.75 462.524ZM408.27 345.034C407.96 342.904 406.37 342.354 404.64 342.164C403.32 342.014 401.87 342.054 401.51 343.764C401.22 345.124 403.77 348.744 404.84 348.464C406.56 348.014 407.61 346.684 408.27 345.034Z" fill="#009245"/>
<path d="M1131.68 108.804C1131.93 158.514 1091.18 199.714 1041.52 199.954C991.55 200.194 950.02 159.174 950.25 109.164C950.48 59.9038 988.86 18.5738 1040.79 18.5138C1093.98 18.4438 1131.28 60.9538 1131.68 108.804Z" fill="#F7931E"/>
</svg>
